<svg width="126" height="18" viewBox="0 0 126 18" fill="none" xmlns="http://www.w3.org/2000/svg">
<g filter="url(#filter0_d_381_2135)">
<path fill-rule="evenodd" clip-rule="evenodd" d="M7.51369 15.9475L1.11687 9.54436C0.627716 9.05522 0.627716 8.26216 1.11687 7.77301L7.51369 1.3445C8.01471 0.843488 8.75212 0.844245 9.25238 1.3445C9.74152 1.83365 9.74152 2.65901 9.25238 3.14815L5.02643 7.40615L124.25 7.40615V9.91122L5.02643 9.91122L9.25238 14.1409C9.74152 14.6301 9.74152 15.4566 9.25238 15.9457C8.76323 16.4348 8.00285 16.4367 7.51369 15.9475Z" fill="#201F22"/>
</g>
<path fill-rule="evenodd" clip-rule="evenodd" d="M7.65685 15.7403L1.29289 9.37635C0.902367 8.98582 0.902367 8.35266 1.29289 7.96214L7.65685 1.59817C8.04738 1.20765 8.68054 1.20765 9.07107 1.59817C9.46159 1.9887 9.46159 2.62186 9.07107 3.01239L4.41422 7.66924L124 7.66924V9.66924L4.41422 9.66924L9.07107 14.3261C9.46159 14.7166 9.46159 15.3498 9.07107 15.7403C8.68054 16.1308 8.04738 16.1308 7.65685 15.7403Z" fill="#EEF310"/>
<defs>
<filter id="filter0_d_381_2135" x="0.75" y="0.96875" width="124.5" height="16.6447" filterUnits="userSpaceOnUse" color-interpolation-filters="sRGB">
<feFlood flood-opacity="0" result="BackgroundImageFix"/>
<feColorMatrix in="SourceAlpha" type="matrix" values="0 0 0 0 0 0 0 0 0 0 0 0 0 0 0 0 0 0 127 0" result="hardAlpha"/>
<feOffset dx="1" dy="1.3"/>
<feComposite in2="hardAlpha" operator="out"/>
<feColorMatrix type="matrix" values="0 0 0 0 0.917647 0 0 0 0 0.917647 0 0 0 0 0.917647 0 0 0 0.5 0"/>
<feBlend mode="normal" in2="BackgroundImageFix" result="effect1_dropShadow_381_2135"/>
<feBlend mode="normal" in="SourceGraphic" in2="effect1_dropShadow_381_2135" result="shape"/>
</filter>
</defs>
</svg>
