<?xml version="1.0" encoding="UTF-8"?>
<svg xmlns="http://www.w3.org/2000/svg" xmlns:xlink="http://www.w3.org/1999/xlink" id="Group_28" data-name="Group 28" width="175" height="26.112" viewBox="0 0 175 26.112">
  <defs>
    <clipPath id="clip-path">
      <rect id="Rectangle_169" data-name="Rectangle 169" width="175" height="26.112" fill="none"></rect>
    </clipPath>
  </defs>
  <rect id="Rectangle_165" data-name="Rectangle 165" width="11.442" height="11.278" transform="translate(0 0.003)" fill="#f67411"></rect>
  <rect id="Rectangle_166" data-name="Rectangle 166" width="36.858" height="11.278" transform="translate(14.629 0.003)" fill="#ee003d"></rect>
  <rect id="Rectangle_167" data-name="Rectangle 167" width="18.593" height="11.282" transform="translate(32.894 14.464)" fill="#5e16f0"></rect>
  <rect id="Rectangle_168" data-name="Rectangle 168" width="29.707" height="11.282" transform="translate(0 14.464)" fill="#0062ff"></rect>
  <g id="Group_27" data-name="Group 27">
    <g id="Group_26" data-name="Group 26" clip-path="url(#clip-path)">
      <path id="Path_271" data-name="Path 271" d="M547.593,22.544v3.2h-2.942V0h2.942V9.783a7.569,7.569,0,0,1,6.767-3.531c4.413,0,8.606,3.016,8.606,9.93,0,6.877-4.193,9.93-8.606,9.93a7.6,7.6,0,0,1-6.767-3.567m6.215,1.066c3.273,0,6.362-2.354,6.362-7.429,0-5.112-3.089-7.466-6.362-7.466-3.236,0-6.362,2.354-6.362,7.466,0,5.075,3.126,7.429,6.362,7.429" transform="translate(-486.79)" fill="#fff"></path>
      <path id="Path_272" data-name="Path 272" d="M737.13,68.819c0-6.951,4.046-9.967,8.937-9.967,4.928,0,8.532,3.089,8.532,9.488a6.49,6.49,0,0,1-.11,1.361H739.962c.221,4.487,2.427,6.657,6.289,6.657,2.354,0,4.487-.772,5.406-3.383h2.685c-1.25,4.229-4.487,5.737-8.128,5.737-5.259,0-9.084-3.163-9.084-9.893m14.637-1.361c-.037-4.009-2.207-6.289-5.737-6.289-3.347,0-5.774,2.023-6.068,6.289Z" transform="translate(-658.821 -52.6)" fill="#fff"></path>
      <path id="Path_273" data-name="Path 273" d="M921.649,73.452c0-3.383,2.317-5.038,6.031-5.48l4.891-.552c1.986-.221,2.574-.625,2.574-1.25V65.4c0-3.236-1.618-4.266-4.781-4.266s-4.781,1.03-4.781,3.567v.441h-2.832v-.7c0-3.825,2.722-5.59,7.723-5.59,5.186,0,7.613,1.949,7.613,6.546V78.344H935.33v-3.31h-.147c-.441.956-2.538,3.678-7.245,3.678-3.641,0-6.289-1.655-6.289-5.259m6.988,2.905c4.45,0,6.51-2.942,6.51-4.855V68.745c-.147.4-.772.735-2.758.993l-4.009.478c-2.832.331-3.788,1.4-3.788,3.089,0,2.207,1.655,3.053,4.046,3.053" transform="translate(-823.737 -52.6)" fill="#fff"></path>
      <path id="Path_274" data-name="Path 274" d="M1106.169,68.819c0-6.8,4.3-9.967,9.231-9.967,3.42,0,7.429,1.508,8.128,6.877h-2.685c-.552-3.2-2.979-4.376-5.48-4.376-3.715,0-6.4,2.611-6.4,7.466s2.685,7.355,6.4,7.355c2.537,0,4.928-1.14,5.48-4.45h2.685c-.662,5.443-4.707,6.988-8.128,6.988-4.928,0-9.231-3.126-9.231-9.893" transform="translate(-988.655 -52.6)" fill="#fff"></path>
      <path id="Path_275" data-name="Path 275" d="M1289.649,68.782c0-6.8,4.45-9.93,9.194-9.93s9.194,3.126,9.194,9.93-4.45,9.93-9.194,9.93-9.194-3.126-9.194-9.93m9.194,7.429c3.31,0,6.362-2.28,6.362-7.429s-3.052-7.466-6.362-7.466c-3.347,0-6.4,2.317-6.4,7.466s3.052,7.429,6.4,7.429" transform="translate(-1152.643 -52.6)" fill="#fff"></path>
      <path id="Path_276" data-name="Path 276" d="M1501.113,61.353c-3.384,0-5.627,2.133-5.627,5.774V78.344h-2.942V59.22h2.942v3.751h.073c.331-1.287,2.17-4.119,6.583-4.119,3.788,0,6.841,2.06,6.841,7.686V78.344h-2.942V67.127c0-3.641-1.545-5.774-4.928-5.774" transform="translate(-1333.983 -52.6)" fill="#fff"></path>
    </g>
  </g>
</svg>
