<svg width="1000" height="1300" viewBox="0 0 1000 1300" fill="none" xmlns="http://www.w3.org/2000/svg">
<path d="M1000 0H0V1300H1000V0Z" fill="#00301F"/>
<path d="M251 1068H151V1168H251V1068Z" fill="#00AD4D"/>
<path d="M190.328 1113H187.033L192.054 1098.45H196.017L201.031 1113H197.736L194.093 1101.78H193.979L190.328 1113ZM190.122 1107.28H197.906V1109.68H190.122V1107.28ZM205.289 1113H201.994L207.015 1098.45H210.978L215.992 1113H212.697L209.053 1101.78H208.94L205.289 1113ZM205.083 1107.28H212.867V1109.68H205.083V1107.28Z" fill="#EAEAEA"/>
<path d="M182.496 1133.44V1131.02L188.568 1121.45H190.656V1124.81H189.421L185.592 1130.87V1130.98H194.222V1133.44H182.496ZM189.477 1136V1132.7L189.534 1131.63V1121.45H192.418V1136H189.477ZM197.794 1136.18C197.325 1136.18 196.923 1136.02 196.587 1135.69C196.255 1135.35 196.09 1134.95 196.09 1134.48C196.09 1134.02 196.255 1133.62 196.587 1133.29C196.923 1132.96 197.325 1132.79 197.794 1132.79C198.249 1132.79 198.646 1132.96 198.987 1133.29C199.328 1133.62 199.499 1134.02 199.499 1134.48C199.499 1134.79 199.418 1135.08 199.257 1135.34C199.101 1135.6 198.895 1135.8 198.639 1135.96C198.384 1136.11 198.102 1136.18 197.794 1136.18ZM206.951 1136.2C206.203 1136.19 205.481 1136.07 204.785 1135.82C204.093 1135.58 203.473 1135.18 202.924 1134.62C202.374 1134.07 201.939 1133.33 201.617 1132.42C201.3 1131.51 201.141 1130.38 201.141 1129.05C201.146 1127.83 201.285 1126.74 201.56 1125.78C201.839 1124.81 202.237 1123.99 202.753 1123.32C203.274 1122.65 203.897 1122.14 204.621 1121.79C205.346 1121.43 206.158 1121.26 207.057 1121.26C208.028 1121.26 208.885 1121.45 209.628 1121.82C210.372 1122.2 210.968 1122.71 211.418 1123.35C211.873 1123.99 212.147 1124.72 212.242 1125.52H209.209C209.091 1125.01 208.842 1124.61 208.463 1124.32C208.085 1124.04 207.616 1123.89 207.057 1123.89C206.11 1123.89 205.391 1124.3 204.898 1125.13C204.41 1125.95 204.162 1127.07 204.152 1128.49H204.252C204.47 1128.05 204.763 1127.69 205.133 1127.38C205.507 1127.08 205.93 1126.84 206.404 1126.68C206.882 1126.52 207.386 1126.43 207.917 1126.43C208.778 1126.43 209.545 1126.64 210.218 1127.04C210.89 1127.45 211.42 1128 211.809 1128.71C212.197 1129.41 212.391 1130.22 212.391 1131.13C212.391 1132.11 212.161 1132.99 211.702 1133.76C211.248 1134.52 210.611 1135.12 209.792 1135.56C208.977 1135.99 208.03 1136.2 206.951 1136.2ZM206.936 1133.78C207.41 1133.78 207.834 1133.67 208.208 1133.44C208.582 1133.22 208.875 1132.91 209.088 1132.52C209.302 1132.13 209.408 1131.7 209.408 1131.21C209.408 1130.73 209.302 1130.3 209.088 1129.91C208.88 1129.53 208.591 1129.22 208.222 1129C207.853 1128.77 207.431 1128.66 206.958 1128.66C206.603 1128.66 206.274 1128.72 205.971 1128.86C205.672 1128.99 205.41 1129.17 205.182 1129.41C204.96 1129.65 204.785 1129.92 204.657 1130.23C204.529 1130.54 204.465 1130.87 204.465 1131.22C204.465 1131.69 204.571 1132.12 204.785 1132.51C205.002 1132.89 205.296 1133.2 205.665 1133.44C206.039 1133.67 206.463 1133.78 206.936 1133.78ZM214.351 1133.44V1131.02L220.424 1121.45H222.512V1124.81H221.276L217.448 1130.87V1130.98H226.077V1133.44H214.351ZM221.333 1136V1132.7L221.39 1131.63V1121.45H224.273V1136H221.333Z" fill="#EAEAEA"/>
<path d="M151 1068H51V1168H151V1068Z" fill="#EEF310"/>
<path d="M83.1063 1113H79.8109L84.8322 1098.45H88.7952L93.8095 1113H90.514L86.8705 1101.78H86.7569L83.1063 1113ZM82.9004 1107.28H90.6845V1109.68H82.9004V1107.28ZM98.0673 1113H94.7718L99.7931 1098.45H103.756L108.77 1113H105.475L101.831 1101.78H101.718L98.0673 1113ZM97.8613 1107.28H105.645V1109.68H97.8613V1107.28ZM113.028 1113H109.733L114.754 1098.45H118.717L123.731 1113H120.436L116.792 1101.78H116.679L113.028 1113ZM112.822 1107.28H120.606V1109.68H112.822V1107.28Z" fill="#00301F"/>
<path d="M84.0341 1121.45V1136H80.9588V1124.37H80.8736L77.5426 1126.46V1123.73L81.1435 1121.45H84.0341ZM93.8192 1121.45V1136H90.744V1124.37H90.6587L87.3278 1126.46V1123.73L90.9286 1121.45H93.8192ZM98.2919 1136.18C97.8231 1136.18 97.4207 1136.02 97.0845 1135.69C96.7531 1135.35 96.5873 1134.95 96.5873 1134.48C96.5873 1134.02 96.7531 1133.62 97.0845 1133.29C97.4207 1132.96 97.8231 1132.79 98.2919 1132.79C98.7464 1132.79 99.1442 1132.96 99.4851 1133.29C99.826 1133.62 99.9964 1134.02 99.9964 1134.48C99.9964 1134.79 99.9159 1135.08 99.755 1135.34C99.5987 1135.6 99.3927 1135.8 99.1371 1135.96C98.8814 1136.11 98.5997 1136.18 98.2919 1136.18ZM107.647 1136.2C106.644 1136.2 105.749 1136.01 104.963 1135.64C104.181 1135.28 103.561 1134.77 103.102 1134.12C102.643 1133.47 102.404 1132.73 102.385 1131.89H105.368C105.401 1132.45 105.637 1132.91 106.078 1133.26C106.518 1133.61 107.041 1133.78 107.647 1133.78C108.13 1133.78 108.556 1133.68 108.926 1133.46C109.3 1133.25 109.591 1132.95 109.799 1132.56C110.012 1132.17 110.119 1131.73 110.119 1131.23C110.119 1130.72 110.01 1130.27 109.792 1129.88C109.579 1129.49 109.283 1129.19 108.904 1128.97C108.526 1128.75 108.092 1128.64 107.605 1128.63C107.179 1128.63 106.764 1128.72 106.362 1128.9C105.964 1129.07 105.654 1129.31 105.431 1129.62L102.697 1129.12L103.386 1121.45H112.278V1123.97H105.922L105.545 1127.61H105.63C105.886 1127.25 106.272 1126.95 106.788 1126.72C107.304 1126.48 107.882 1126.36 108.521 1126.36C109.397 1126.36 110.178 1126.57 110.865 1126.98C111.551 1127.39 112.093 1127.96 112.491 1128.68C112.889 1129.39 113.085 1130.22 113.081 1131.15C113.085 1132.13 112.858 1133 112.399 1133.76C111.944 1134.52 111.307 1135.12 110.488 1135.55C109.674 1135.98 108.727 1136.2 107.647 1136.2ZM120.602 1136.2C119.541 1136.2 118.597 1136.02 117.768 1135.65C116.944 1135.28 116.293 1134.78 115.815 1134.13C115.341 1133.48 115.098 1132.74 115.083 1131.89H118.18C118.199 1132.24 118.315 1132.56 118.528 1132.83C118.746 1133.09 119.035 1133.3 119.395 1133.44C119.754 1133.59 120.159 1133.66 120.609 1133.66C121.078 1133.66 121.492 1133.58 121.852 1133.41C122.212 1133.25 122.493 1133.02 122.697 1132.73C122.901 1132.43 123.002 1132.09 123.002 1131.71C123.002 1131.32 122.894 1130.98 122.676 1130.68C122.463 1130.38 122.155 1130.14 121.752 1129.97C121.355 1129.8 120.881 1129.71 120.332 1129.71H118.975V1127.46H120.332C120.796 1127.46 121.206 1127.38 121.561 1127.21C121.921 1127.05 122.2 1126.83 122.399 1126.55C122.598 1126.26 122.697 1125.92 122.697 1125.54C122.697 1125.17 122.609 1124.85 122.434 1124.58C122.264 1124.3 122.022 1124.08 121.71 1123.93C121.402 1123.77 121.042 1123.69 120.63 1123.69C120.214 1123.69 119.832 1123.77 119.487 1123.92C119.141 1124.07 118.864 1124.28 118.656 1124.55C118.448 1124.83 118.336 1125.15 118.322 1125.52H115.375C115.389 1124.68 115.628 1123.94 116.092 1123.3C116.556 1122.66 117.181 1122.16 117.967 1121.8C118.758 1121.44 119.65 1121.26 120.645 1121.26C121.648 1121.26 122.527 1121.44 123.279 1121.8C124.032 1122.17 124.617 1122.66 125.034 1123.28C125.455 1123.9 125.663 1124.59 125.659 1125.35C125.663 1126.17 125.41 1126.85 124.899 1127.39C124.392 1127.94 123.732 1128.28 122.917 1128.43V1128.54C123.987 1128.68 124.802 1129.05 125.36 1129.66C125.924 1130.26 126.203 1131.01 126.198 1131.92C126.203 1132.74 125.964 1133.48 125.481 1134.12C125.003 1134.77 124.342 1135.28 123.5 1135.64C122.657 1136.01 121.691 1136.2 120.602 1136.2Z" fill="#00301F"/>
<path d="M600 1068H500V1168H600V1068Z" fill="#006340"/>
<path d="M547.264 1113V1098.45H556.895V1100.99H550.339V1104.46H556.256V1106.99H550.339V1113H547.264Z" fill="#FF0000"/>
<path d="M538.044 1121.45V1136H534.969V1124.37H534.884L531.553 1126.46V1123.73L535.153 1121.45H538.044ZM542.517 1136.18C542.048 1136.18 541.646 1136.02 541.309 1135.69C540.978 1135.35 540.812 1134.95 540.812 1134.48C540.812 1134.02 540.978 1133.62 541.309 1133.29C541.646 1132.96 542.048 1132.79 542.517 1132.79C542.971 1132.79 543.369 1132.96 543.71 1133.29C544.051 1133.62 544.221 1134.02 544.221 1134.48C544.221 1134.79 544.141 1135.08 543.98 1135.34C543.824 1135.6 543.618 1135.8 543.362 1135.96C543.106 1136.11 542.825 1136.18 542.517 1136.18ZM551.666 1121.26C552.414 1121.26 553.134 1121.38 553.825 1121.63C554.521 1121.88 555.142 1122.28 555.686 1122.83C556.235 1123.38 556.669 1124.11 556.986 1125.02C557.308 1125.92 557.471 1127.03 557.476 1128.35C557.476 1129.59 557.336 1130.69 557.057 1131.66C556.782 1132.63 556.387 1133.45 555.871 1134.12C555.355 1134.8 554.732 1135.32 554.003 1135.67C553.274 1136.02 552.459 1136.2 551.56 1136.2C550.589 1136.2 549.732 1136.01 548.989 1135.64C548.245 1135.26 547.646 1134.75 547.192 1134.1C546.742 1133.44 546.47 1132.71 546.375 1131.89H549.408C549.526 1132.43 549.775 1132.84 550.153 1133.13C550.532 1133.42 551.001 1133.56 551.56 1133.56C552.507 1133.56 553.226 1133.15 553.719 1132.33C554.211 1131.5 554.46 1130.37 554.465 1128.93H554.365C554.147 1129.35 553.854 1129.72 553.484 1130.03C553.115 1130.33 552.691 1130.56 552.213 1130.73C551.74 1130.9 551.235 1130.98 550.7 1130.98C549.843 1130.98 549.079 1130.78 548.406 1130.38C547.734 1129.97 547.204 1129.42 546.815 1128.71C546.427 1128.01 546.233 1127.2 546.233 1126.3C546.228 1125.32 546.453 1124.45 546.908 1123.69C547.362 1122.93 547.997 1122.33 548.811 1121.9C549.63 1121.47 550.582 1121.25 551.666 1121.26ZM551.688 1123.67C551.209 1123.67 550.783 1123.78 550.409 1124.01C550.04 1124.24 549.746 1124.54 549.528 1124.93C549.315 1125.31 549.211 1125.74 549.216 1126.21C549.216 1126.69 549.32 1127.12 549.528 1127.51C549.742 1127.88 550.03 1128.19 550.395 1128.41C550.764 1128.64 551.186 1128.75 551.659 1128.75C552.014 1128.75 552.343 1128.68 552.646 1128.55C552.949 1128.42 553.212 1128.23 553.435 1128C553.662 1127.77 553.84 1127.49 553.967 1127.19C554.095 1126.88 554.159 1126.55 554.159 1126.21C554.154 1125.75 554.046 1125.33 553.832 1124.94C553.619 1124.56 553.326 1124.25 552.952 1124.02C552.578 1123.79 552.156 1123.67 551.688 1123.67ZM565.033 1136.2C563.939 1136.2 562.966 1136.02 562.114 1135.67C561.266 1135.31 560.601 1134.82 560.118 1134.2C559.635 1133.58 559.394 1132.87 559.394 1132.09C559.394 1131.48 559.531 1130.92 559.805 1130.42C560.085 1129.91 560.464 1129.48 560.942 1129.15C561.42 1128.81 561.955 1128.59 562.547 1128.49V1128.39C561.77 1128.24 561.141 1127.86 560.658 1127.26C560.175 1126.66 559.933 1125.96 559.933 1125.17C559.933 1124.42 560.153 1123.75 560.594 1123.16C561.034 1122.57 561.638 1122.1 562.405 1121.77C563.177 1121.43 564.053 1121.26 565.033 1121.26C566.013 1121.26 566.886 1121.43 567.653 1121.77C568.425 1122.11 569.031 1122.57 569.472 1123.17C569.912 1123.75 570.135 1124.42 570.139 1125.17C570.135 1125.97 569.888 1126.67 569.401 1127.26C568.913 1127.86 568.288 1128.24 567.526 1128.39V1128.49C568.108 1128.59 568.636 1128.81 569.109 1129.15C569.588 1129.48 569.966 1129.91 570.246 1130.42C570.53 1130.92 570.674 1131.48 570.679 1132.09C570.674 1132.87 570.43 1133.58 569.947 1134.2C569.465 1134.82 568.797 1135.31 567.945 1135.67C567.097 1136.02 566.126 1136.2 565.033 1136.2ZM565.033 1133.94C565.52 1133.94 565.947 1133.85 566.311 1133.68C566.676 1133.5 566.96 1133.25 567.163 1132.94C567.372 1132.62 567.476 1132.26 567.476 1131.85C567.476 1131.42 567.369 1131.05 567.156 1130.73C566.943 1130.4 566.654 1130.15 566.29 1129.96C565.925 1129.77 565.506 1129.68 565.033 1129.68C564.564 1129.68 564.145 1129.77 563.776 1129.96C563.406 1130.15 563.115 1130.4 562.902 1130.73C562.694 1131.05 562.59 1131.42 562.59 1131.85C562.59 1132.26 562.691 1132.62 562.895 1132.94C563.099 1133.25 563.385 1133.5 563.754 1133.68C564.124 1133.85 564.55 1133.94 565.033 1133.94ZM565.033 1127.44C565.44 1127.44 565.802 1127.36 566.119 1127.19C566.437 1127.03 566.685 1126.8 566.865 1126.5C567.045 1126.21 567.135 1125.87 567.135 1125.49C567.135 1125.11 567.045 1124.78 566.865 1124.49C566.685 1124.21 566.439 1123.98 566.126 1123.82C565.814 1123.65 565.449 1123.57 565.033 1123.57C564.621 1123.57 564.256 1123.65 563.939 1123.82C563.622 1123.98 563.373 1124.21 563.193 1124.49C563.018 1124.78 562.93 1125.11 562.93 1125.49C562.93 1125.87 563.02 1126.21 563.2 1126.5C563.38 1126.8 563.629 1127.03 563.946 1127.19C564.263 1127.36 564.626 1127.44 565.033 1127.44Z" fill="#FF0000"/>
<path d="M351 1068H251V1168H351V1068Z" fill="#B87333"/>
<path d="M290.771 1114H287.476L292.497 1099.45H296.46L301.474 1114H298.179L294.536 1102.78H294.422L290.771 1114ZM290.565 1108.28H298.349V1110.68H290.565V1108.28ZM305.732 1114H302.437L307.458 1099.45H311.421L316.435 1114H313.14L309.496 1102.78H309.383L305.732 1114ZM305.526 1108.28H313.31V1110.68H305.526V1108.28Z" fill="#EAEAEA"/>
<path d="M285.555 1137.2C284.495 1137.2 283.55 1137.02 282.722 1136.65C281.898 1136.28 281.247 1135.78 280.768 1135.13C280.295 1134.48 280.051 1133.74 280.037 1132.89H283.134C283.152 1133.24 283.268 1133.56 283.482 1133.83C283.699 1134.09 283.988 1134.3 284.348 1134.44C284.708 1134.59 285.113 1134.66 285.562 1134.66C286.031 1134.66 286.446 1134.58 286.805 1134.41C287.165 1134.25 287.447 1134.02 287.651 1133.73C287.854 1133.43 287.956 1133.09 287.956 1132.71C287.956 1132.32 287.847 1131.98 287.629 1131.68C287.416 1131.38 287.108 1131.14 286.706 1130.97C286.308 1130.8 285.835 1130.71 285.286 1130.71H283.929V1128.46H285.286C285.75 1128.46 286.159 1128.38 286.514 1128.21C286.874 1128.05 287.153 1127.83 287.352 1127.55C287.551 1127.26 287.651 1126.92 287.651 1126.54C287.651 1126.17 287.563 1125.85 287.388 1125.58C287.217 1125.3 286.976 1125.08 286.663 1124.93C286.356 1124.77 285.996 1124.69 285.584 1124.69C285.167 1124.69 284.786 1124.77 284.44 1124.92C284.095 1125.07 283.818 1125.28 283.609 1125.55C283.401 1125.83 283.29 1126.15 283.276 1126.52H280.328C280.342 1125.68 280.581 1124.94 281.045 1124.3C281.509 1123.66 282.134 1123.16 282.92 1122.8C283.711 1122.44 284.604 1122.26 285.598 1122.26C286.602 1122.26 287.48 1122.44 288.233 1122.8C288.986 1123.17 289.571 1123.66 289.987 1124.28C290.409 1124.9 290.617 1125.59 290.612 1126.35C290.617 1127.17 290.364 1127.85 289.852 1128.39C289.346 1128.94 288.685 1129.28 287.871 1129.43V1129.54C288.941 1129.68 289.755 1130.05 290.314 1130.66C290.877 1131.26 291.157 1132.01 291.152 1132.92C291.157 1133.74 290.918 1134.48 290.435 1135.12C289.956 1135.77 289.296 1136.28 288.453 1136.64C287.61 1137.01 286.644 1137.2 285.555 1137.2ZM294.749 1137.18C294.281 1137.18 293.878 1137.02 293.542 1136.69C293.21 1136.35 293.045 1135.95 293.045 1135.48C293.045 1135.02 293.21 1134.62 293.542 1134.29C293.878 1133.96 294.281 1133.79 294.749 1133.79C295.204 1133.79 295.602 1133.96 295.942 1134.29C296.283 1134.62 296.454 1135.02 296.454 1135.48C296.454 1135.79 296.373 1136.08 296.212 1136.34C296.056 1136.6 295.85 1136.8 295.594 1136.96C295.339 1137.11 295.057 1137.18 294.749 1137.18ZM303.75 1137.2C302.656 1137.2 301.683 1137.02 300.831 1136.67C299.983 1136.31 299.318 1135.82 298.835 1135.2C298.352 1134.58 298.11 1133.87 298.11 1133.09C298.11 1132.48 298.248 1131.92 298.522 1131.42C298.802 1130.91 299.181 1130.48 299.659 1130.15C300.137 1129.81 300.672 1129.59 301.264 1129.49V1129.39C300.487 1129.24 299.858 1128.86 299.375 1128.26C298.892 1127.66 298.65 1126.96 298.65 1126.17C298.65 1125.42 298.87 1124.75 299.311 1124.16C299.751 1123.57 300.355 1123.1 301.122 1122.77C301.894 1122.43 302.77 1122.26 303.75 1122.26C304.73 1122.26 305.603 1122.43 306.37 1122.77C307.142 1123.11 307.748 1123.57 308.189 1124.17C308.629 1124.75 308.851 1125.42 308.856 1126.17C308.851 1126.97 308.605 1127.67 308.118 1128.26C307.63 1128.86 307.005 1129.24 306.243 1129.39V1129.49C306.825 1129.59 307.353 1129.81 307.826 1130.15C308.305 1130.48 308.683 1130.91 308.963 1131.42C309.247 1131.92 309.391 1132.48 309.396 1133.09C309.391 1133.87 309.147 1134.58 308.664 1135.2C308.181 1135.82 307.514 1136.31 306.662 1136.67C305.814 1137.02 304.843 1137.2 303.75 1137.2ZM303.75 1134.94C304.237 1134.94 304.663 1134.85 305.028 1134.68C305.393 1134.5 305.677 1134.25 305.88 1133.94C306.089 1133.62 306.193 1133.26 306.193 1132.85C306.193 1132.42 306.086 1132.05 305.873 1131.73C305.66 1131.4 305.371 1131.15 305.007 1130.96C304.642 1130.77 304.223 1130.68 303.75 1130.68C303.281 1130.68 302.862 1130.77 302.493 1130.96C302.123 1131.15 301.832 1131.4 301.619 1131.73C301.411 1132.05 301.306 1132.42 301.306 1132.85C301.306 1133.26 301.408 1133.62 301.612 1133.94C301.815 1134.25 302.102 1134.5 302.471 1134.68C302.841 1134.85 303.267 1134.94 303.75 1134.94ZM303.75 1128.44C304.157 1128.44 304.519 1128.36 304.836 1128.19C305.154 1128.03 305.402 1127.8 305.582 1127.5C305.762 1127.21 305.852 1126.87 305.852 1126.49C305.852 1126.11 305.762 1125.78 305.582 1125.49C305.402 1125.21 305.156 1124.98 304.843 1124.82C304.531 1124.65 304.166 1124.57 303.75 1124.57C303.338 1124.57 302.973 1124.65 302.656 1124.82C302.339 1124.98 302.09 1125.21 301.91 1125.49C301.735 1125.78 301.647 1126.11 301.647 1126.49C301.647 1126.87 301.737 1127.21 301.917 1127.5C302.097 1127.8 302.346 1128.03 302.663 1128.19C302.98 1128.36 303.342 1128.44 303.75 1128.44ZM316.923 1137.2C315.862 1137.2 314.917 1137.02 314.089 1136.65C313.265 1136.28 312.614 1135.78 312.136 1135.13C311.662 1134.48 311.418 1133.74 311.404 1132.89H314.501C314.52 1133.24 314.636 1133.56 314.849 1133.83C315.067 1134.09 315.355 1134.3 315.715 1134.44C316.075 1134.59 316.48 1134.66 316.93 1134.66C317.398 1134.66 317.813 1134.58 318.173 1134.41C318.532 1134.25 318.814 1134.02 319.018 1133.73C319.221 1133.43 319.323 1133.09 319.323 1132.71C319.323 1132.32 319.214 1131.98 318.996 1131.68C318.783 1131.38 318.476 1131.14 318.073 1130.97C317.675 1130.8 317.202 1130.71 316.653 1130.71H315.296V1128.46H316.653C317.117 1128.46 317.526 1128.38 317.881 1128.21C318.241 1128.05 318.521 1127.83 318.719 1127.55C318.918 1127.26 319.018 1126.92 319.018 1126.54C319.018 1126.17 318.93 1125.85 318.755 1125.58C318.585 1125.3 318.343 1125.08 318.031 1124.93C317.723 1124.77 317.363 1124.69 316.951 1124.69C316.534 1124.69 316.153 1124.77 315.808 1124.92C315.462 1125.07 315.185 1125.28 314.977 1125.55C314.768 1125.83 314.657 1126.15 314.643 1126.52H311.695C311.71 1125.68 311.949 1124.94 312.413 1124.3C312.877 1123.66 313.502 1123.16 314.288 1122.8C315.078 1122.44 315.971 1122.26 316.965 1122.26C317.969 1122.26 318.847 1122.44 319.6 1122.8C320.353 1123.17 320.938 1123.66 321.354 1124.28C321.776 1124.9 321.984 1125.59 321.979 1126.35C321.984 1127.17 321.731 1127.85 321.219 1128.39C320.713 1128.94 320.052 1129.28 319.238 1129.43V1129.54C320.308 1129.68 321.122 1130.05 321.681 1130.66C322.245 1131.26 322.524 1132.01 322.519 1132.92C322.524 1133.74 322.285 1134.48 321.802 1135.12C321.324 1135.77 320.663 1136.28 319.82 1136.64C318.978 1137.01 318.012 1137.2 316.923 1137.2Z" fill="#EAEAEA"/>
<path d="M63 950H58.1L53.25 917.5H56.75L60.85 944.95L66.2 917.5H69.95L75.3 944.95L79.4 917.5H82.9L78.05 950H73.15L68.05 924.05L63 950ZM102.381 943.75V941H105.881V943.75C105.881 945.983 105.198 947.717 103.831 948.95C102.464 950.15 100.414 950.75 97.6809 950.75C94.9475 950.75 92.8809 950.15 91.4809 948.95C90.0809 947.717 89.3809 945.983 89.3809 943.75V923.75C89.3809 921.517 90.0642 919.8 91.4309 918.6C92.7975 917.367 94.8475 916.75 97.5809 916.75C100.314 916.75 102.381 917.367 103.781 918.6C105.181 919.8 105.881 921.517 105.881 923.75V928.5H102.381V923.75C102.381 921.083 100.798 919.75 97.6309 919.75C94.4642 919.75 92.8809 921.083 92.8809 923.75V943.75C92.8809 946.417 94.4642 947.75 97.6309 947.75C100.798 947.75 102.381 946.417 102.381 943.75ZM118.993 917.5H124.243L131.593 950H128.093L126.393 942.5H116.843L115.143 950H111.643L118.993 917.5ZM121.593 921.4L117.493 939.5H125.693L121.593 921.4ZM145.218 936.5V933.5H154.318V950H152.818L151.518 946.8C150.818 948 149.902 948.967 148.768 949.7C147.635 950.4 146.402 950.75 145.068 950.75C140.235 950.75 137.818 948.417 137.818 943.75V923.75C137.818 921.517 138.502 919.8 139.868 918.6C141.235 917.367 143.285 916.75 146.018 916.75C148.752 916.75 150.818 917.367 152.218 918.6C153.618 919.8 154.318 921.517 154.318 923.75V926.5H150.818V923.75C150.818 921.083 149.235 919.75 146.068 919.75C142.902 919.75 141.318 921.083 141.318 923.75V943.75C141.318 945.017 141.585 946 142.118 946.7C142.652 947.4 143.618 947.75 145.018 947.75C146.452 947.75 147.768 947.183 148.968 946.05C150.202 944.917 150.818 943.817 150.818 942.75V936.5H145.218ZM187.342 943.75V941H190.842V943.75C190.842 945.983 190.158 947.717 188.792 948.95C187.425 950.15 185.375 950.75 182.642 950.75C179.908 950.75 177.842 950.15 176.442 948.95C175.042 947.717 174.342 945.983 174.342 943.75V923.75C174.342 921.517 175.025 919.8 176.392 918.6C177.758 917.367 179.808 916.75 182.542 916.75C185.275 916.75 187.342 917.367 188.742 918.6C190.142 919.8 190.842 921.517 190.842 923.75V928.5H187.342V923.75C187.342 921.083 185.758 919.75 182.592 919.75C179.425 919.75 177.842 921.083 177.842 923.75V943.75C177.842 946.417 179.425 947.75 182.592 947.75C185.758 947.75 187.342 946.417 187.342 943.75ZM215.854 923.75V943.75C215.854 945.983 215.137 947.717 213.704 948.95C212.304 950.15 210.187 950.75 207.354 950.75C204.554 950.75 202.437 950.15 201.004 948.95C199.57 947.717 198.854 945.983 198.854 943.75V923.75C198.854 921.517 199.554 919.8 200.954 918.6C202.387 917.367 204.504 916.75 207.304 916.75C210.137 916.75 212.27 917.367 213.704 918.6C215.137 919.8 215.854 921.517 215.854 923.75ZM212.354 943.75V923.75C212.354 921.083 210.687 919.75 207.354 919.75C204.02 919.75 202.354 921.083 202.354 923.75V943.75C202.354 946.417 204.02 947.75 207.354 947.75C210.687 947.75 212.354 946.417 212.354 943.75ZM228.592 950H225.092V917.5H228.592L239.442 942.5V917.5H242.942V950H239.442L228.592 925V950ZM265.924 917.5V920.5H259.424V950H255.924V920.5H249.424V917.5H265.924ZM275.906 950H272.406V917.5H279.956C282.556 917.5 284.523 918.117 285.856 919.35C287.223 920.583 287.906 922.3 287.906 924.5V931.5C287.906 934.9 286.44 937.067 283.506 938L289.656 950H285.806L279.956 938.5H275.906V950ZM284.406 931.5V924.5C284.406 923.233 284.023 922.25 283.256 921.55C282.49 920.85 281.39 920.5 279.956 920.5H275.906V935.5H279.956C282.923 935.5 284.406 934.167 284.406 931.5ZM301.024 917.5H306.274L313.624 950H310.124L308.424 942.5H298.874L297.174 950H293.674L301.024 917.5ZM303.624 921.4L299.524 939.5H307.724L303.624 921.4ZM336.5 943.75C336.5 948.417 333.683 950.75 328.05 950.75C322.416 950.75 319.6 948.417 319.6 943.75V939.5H323.1V943.95C323.1 945.15 323.516 946.083 324.35 946.75C325.183 947.417 326.416 947.75 328.05 947.75C329.683 947.75 330.916 947.417 331.75 946.75C332.583 946.083 333 945.183 333 944.05C333 942.883 332.866 941.967 332.6 941.3C332.366 940.6 331.866 939.867 331.1 939.1L322.3 930.5C321.266 929.467 320.55 928.467 320.15 927.5C319.783 926.5 319.6 925.25 319.6 923.75C319.6 921.517 320.283 919.8 321.65 918.6C323.05 917.367 325.15 916.75 327.95 916.75C333.316 916.75 336 919.083 336 923.75V928H332.5V923.55C332.5 922.35 332.1 921.417 331.3 920.75C330.533 920.083 329.366 919.75 327.8 919.75C326.233 919.75 325.05 920.083 324.25 920.75C323.483 921.417 323.1 922.333 323.1 923.5C323.1 924.667 323.216 925.583 323.45 926.25C323.683 926.917 324.2 927.617 325 928.35L333.95 936.95C334.916 938.017 335.583 939.05 335.95 940.05C336.316 941.017 336.5 942.25 336.5 943.75ZM358.502 917.5V920.5H352.002V950H348.502V920.5H342.002V917.5H358.502ZM55.25 996.25V971.25C55.25 969.017 55.9667 967.3 57.4 966.1C58.8333 964.867 60.9833 964.25 63.85 964.25V967.25C60.45 967.25 58.75 968.583 58.75 971.25V996.25C58.75 998.917 60.4333 1000.25 63.8 1000.25V1003.25C60.9667 1003.25 58.8333 1002.63 57.4 1001.4C55.9667 1000.2 55.25 998.483 55.25 996.25ZM88.3633 973.75V993.75C88.3633 995.983 87.6466 997.717 86.2133 998.95C84.8133 1000.15 82.6966 1000.75 79.8633 1000.75C77.0633 1000.75 74.9466 1000.15 73.5133 998.95C72.0799 997.717 71.3633 995.983 71.3633 993.75V973.75C71.3633 971.517 72.0633 969.8 73.4633 968.6C74.8966 967.367 77.0133 966.75 79.8133 966.75C82.6466 966.75 84.7799 967.367 86.2133 968.6C87.6466 969.8 88.3633 971.517 88.3633 973.75ZM84.8633 993.75V973.75C84.8633 971.083 83.1966 969.75 79.8633 969.75C76.5299 969.75 74.8633 971.083 74.8633 973.75V993.75C74.8633 996.417 76.5299 997.75 79.8633 997.75C83.1966 997.75 84.8633 996.417 84.8633 993.75ZM101.102 1000H97.6016V967.5H99.1016L100.352 970.75C101.952 968.083 104.168 966.75 107.002 966.75C111.902 966.75 114.352 969.083 114.352 973.75V1000H110.852V973.75C110.852 972.483 110.568 971.5 110.002 970.8C109.468 970.1 108.468 969.75 107.002 969.75C105.535 969.75 104.185 970.317 102.952 971.45C101.718 972.583 101.102 973.683 101.102 974.75V1000ZM143.445 1000H135.395V967.5H143.445C146.045 967.5 148.011 968.117 149.345 969.35C150.711 970.583 151.395 972.3 151.395 974.5V993C151.395 995.233 150.728 996.967 149.395 998.2C148.061 999.4 146.078 1000 143.445 1000ZM147.895 993V974.5C147.895 973.433 147.495 972.5 146.695 971.7C145.928 970.9 144.845 970.5 143.445 970.5H138.895V997H143.445C144.845 997 145.928 996.617 146.695 995.85C147.495 995.05 147.895 994.1 147.895 993ZM176.139 1000H174.639L173.339 996.8C172.639 998 171.722 998.967 170.589 999.7C169.455 1000.4 168.205 1000.75 166.839 1000.75C162.039 1000.75 159.639 998.417 159.639 993.75V988.75C159.639 984.083 162.039 981.75 166.839 981.75H172.639V973.55C172.639 972.35 172.255 971.417 171.489 970.75C170.722 970.083 169.589 969.75 168.089 969.75C165.122 969.75 163.639 971.017 163.639 973.55V976.5H160.139V973.75C160.139 971.517 160.789 969.8 162.089 968.6C163.422 967.367 165.422 966.75 168.089 966.75C170.755 966.75 172.755 967.367 174.089 968.6C175.455 969.8 176.139 971.517 176.139 973.75V1000ZM172.639 984.75H166.839C165.439 984.75 164.472 985.1 163.939 985.8C163.405 986.5 163.139 987.483 163.139 988.75V993.75C163.139 995.017 163.405 996 163.939 996.7C164.472 997.4 165.439 997.75 166.839 997.75C168.239 997.75 169.539 997.217 170.739 996.15C171.939 995.05 172.572 993.967 172.639 992.9V984.75ZM189.139 1000H185.639V967.5H187.139L188.589 971.2C189.655 968.233 191.355 966.75 193.689 966.75C197.655 966.75 199.639 968.917 199.639 973.25V976.5H196.289V973.05C196.289 970.85 195.372 969.75 193.539 969.75C192.439 969.75 191.422 970.383 190.489 971.65C189.589 972.917 189.139 974.75 189.139 977.15V1000ZM209.208 1000H205.708V967.5H209.208V981.3L217.908 967.5H221.808L212.958 981.5L222.408 1000H218.558L210.858 984.85L209.208 987.5V1000ZM246.586 986.5V983.5H255.686V1000H254.186L252.886 996.8C252.186 998 251.269 998.967 250.136 999.7C249.002 1000.4 247.769 1000.75 246.436 1000.75C241.602 1000.75 239.186 998.417 239.186 993.75V973.75C239.186 971.517 239.869 969.8 241.236 968.6C242.602 967.367 244.652 966.75 247.386 966.75C250.119 966.75 252.186 967.367 253.586 968.6C254.986 969.8 255.686 971.517 255.686 973.75V976.5H252.186V973.75C252.186 971.083 250.602 969.75 247.436 969.75C244.269 969.75 242.686 971.083 242.686 973.75V993.75C242.686 995.017 242.952 996 243.486 996.7C244.019 997.4 244.986 997.75 246.386 997.75C247.819 997.75 249.136 997.183 250.336 996.05C251.569 994.917 252.186 993.817 252.186 992.75V986.5H246.586ZM268.436 1000H264.936V967.5H266.436L267.886 971.2C268.952 968.233 270.652 966.75 272.986 966.75C276.952 966.75 278.936 968.917 278.936 973.25V976.5H275.586V973.05C275.586 970.85 274.669 969.75 272.836 969.75C271.736 969.75 270.719 970.383 269.786 971.65C268.886 972.917 268.436 974.75 268.436 977.15V1000ZM297.205 993.75V991H300.705V993.75C300.705 995.983 300.022 997.717 298.655 998.95C297.288 1000.15 295.238 1000.75 292.505 1000.75C289.772 1000.75 287.705 1000.15 286.305 998.95C284.905 997.717 284.205 995.983 284.205 993.75V973.75C284.205 971.517 284.888 969.8 286.255 968.6C287.622 967.367 289.672 966.75 292.405 966.75C295.138 966.75 297.205 967.367 298.605 968.6C300.005 969.8 300.705 971.517 300.705 973.75V984.75H287.705V993.75C287.705 996.417 289.288 997.75 292.455 997.75C295.622 997.75 297.205 996.417 297.205 993.75ZM287.705 973.75V981.75H297.205V973.75C297.205 971.083 295.622 969.75 292.455 969.75C289.288 969.75 287.705 971.083 287.705 973.75ZM322.205 993.75V991H325.705V993.75C325.705 995.983 325.022 997.717 323.655 998.95C322.288 1000.15 320.238 1000.75 317.505 1000.75C314.772 1000.75 312.705 1000.15 311.305 998.95C309.905 997.717 309.205 995.983 309.205 993.75V973.75C309.205 971.517 309.888 969.8 311.255 968.6C312.622 967.367 314.672 966.75 317.405 966.75C320.138 966.75 322.205 967.367 323.605 968.6C325.005 969.8 325.705 971.517 325.705 973.75V984.75H312.705V993.75C312.705 996.417 314.288 997.75 317.455 997.75C320.622 997.75 322.205 996.417 322.205 993.75ZM312.705 973.75V981.75H322.205V973.75C322.205 971.083 320.622 969.75 317.455 969.75C314.288 969.75 312.705 971.083 312.705 973.75ZM338.455 1000H334.955V967.5H336.455L337.705 970.75C339.305 968.083 341.522 966.75 344.355 966.75C349.255 966.75 351.705 969.083 351.705 973.75V1000H348.205V973.75C348.205 972.483 347.922 971.5 347.355 970.8C346.822 970.1 345.822 969.75 344.355 969.75C342.888 969.75 341.538 970.317 340.305 971.45C339.072 972.583 338.455 973.683 338.455 974.75V1000ZM366.075 971.25V996.25C366.075 998.483 365.358 1000.2 363.925 1001.4C362.491 1002.63 360.358 1003.25 357.525 1003.25V1000.25C360.891 1000.25 362.575 998.917 362.575 996.25V971.25C362.575 968.583 360.875 967.25 357.475 967.25V964.25C360.341 964.25 362.491 964.867 363.925 966.1C365.358 967.3 366.075 969.017 366.075 971.25Z" fill="#EAEAEA"/>
<path d="M600 498H500V598H600V498Z" fill="url(#paint0_linear_2_132)"/>
<path d="M182.722 796.23L183.226 793.8H180.778L180.256 796.23H182.722ZM187.816 793.8H185.458L184.936 796.23H187.204V798.228H184.522L183.928 801H181.714L182.29 798.228H179.842L179.248 801H177.034L177.61 798.228H175.81V796.23H178.042L178.546 793.8H176.422V791.712H178.996L179.59 788.886H181.822L181.228 791.712H183.676L184.27 788.886H186.502L185.908 791.712H187.816V793.8ZM192.565 798.786H194.023C195.391 798.786 196.075 798.318 196.075 797.382C196.075 796.446 195.397 795.978 194.041 795.978H192.565V798.786ZM192.565 791.082V793.8H193.591C194.311 793.8 194.851 793.668 195.211 793.404C195.583 793.14 195.769 792.792 195.769 792.36C195.769 791.508 195.193 791.082 194.041 791.082H192.565ZM189.793 788.868H194.509C195.841 788.868 196.855 789.186 197.551 789.822C198.247 790.446 198.595 791.244 198.595 792.216C198.595 792.852 198.427 793.41 198.091 793.89C197.755 794.37 197.317 794.694 196.777 794.862C198.181 795.282 198.883 796.23 198.883 797.706C198.883 798.666 198.535 799.458 197.839 800.082C197.155 800.694 196.219 801 195.031 801H189.793V788.868ZM204.399 799.092C204.951 799.092 205.365 798.96 205.641 798.696C205.929 798.42 206.073 798.09 206.073 797.706C206.073 797.274 205.923 796.92 205.623 796.644C205.335 796.368 204.927 796.23 204.399 796.23C203.859 796.23 203.451 796.38 203.175 796.68C202.911 796.98 202.779 797.334 202.779 797.742C202.779 798.114 202.905 798.432 203.157 798.696C203.421 798.96 203.835 799.092 204.399 799.092ZM204.381 791.1C203.901 791.1 203.547 791.238 203.319 791.514C203.091 791.778 202.977 792.102 202.977 792.486C202.977 792.942 203.115 793.296 203.391 793.548C203.667 793.8 204.015 793.926 204.435 793.926C204.843 793.926 205.185 793.8 205.461 793.548C205.737 793.296 205.875 792.942 205.875 792.486C205.875 791.562 205.377 791.1 204.381 791.1ZM207.027 795.006C208.143 795.522 208.701 796.428 208.701 797.724C208.701 798.756 208.299 799.59 207.495 800.226C206.703 800.862 205.665 801.18 204.381 801.18C203.085 801.18 202.053 800.88 201.285 800.28C200.529 799.668 200.151 798.846 200.151 797.814C200.151 796.542 200.721 795.624 201.861 795.06C200.841 794.472 200.331 793.626 200.331 792.522C200.331 791.418 200.709 790.56 201.465 789.948C202.233 789.324 203.205 789.012 204.381 789.012C205.605 789.012 206.595 789.306 207.351 789.894C208.119 790.482 208.503 791.358 208.503 792.522C208.503 793.602 208.011 794.43 207.027 795.006ZM209.69 789.21H217.61V791.442L213.038 801H210.266L214.856 791.442H209.69V789.21ZM218.987 792.18V789.732C219.875 789.288 220.769 789.066 221.669 789.066C222.941 789.066 223.949 789.372 224.693 789.984C225.437 790.584 225.809 791.37 225.809 792.342C225.809 793.674 225.203 794.592 223.991 795.096C225.359 795.42 226.043 796.308 226.043 797.76C226.043 798.768 225.659 799.578 224.891 800.19C224.135 800.79 223.073 801.09 221.705 801.09C220.421 801.09 219.359 800.886 218.519 800.478V797.958C219.479 798.486 220.469 798.75 221.489 798.75C222.077 798.75 222.533 798.624 222.857 798.372C223.193 798.12 223.361 797.802 223.361 797.418C223.361 796.542 222.551 796.104 220.931 796.104H220.301V793.944H220.931C221.567 793.944 222.089 793.836 222.497 793.62C222.905 793.404 223.109 793.08 223.109 792.648C223.109 791.82 222.569 791.406 221.489 791.406C220.661 791.406 219.827 791.664 218.987 792.18ZM227.688 792.18V789.732C228.576 789.288 229.47 789.066 230.37 789.066C231.642 789.066 232.65 789.372 233.394 789.984C234.138 790.584 234.51 791.37 234.51 792.342C234.51 793.674 233.904 794.592 232.692 795.096C234.06 795.42 234.744 796.308 234.744 797.76C234.744 798.768 234.36 799.578 233.592 800.19C232.836 800.79 231.774 801.09 230.406 801.09C229.122 801.09 228.06 800.886 227.22 800.478V797.958C228.18 798.486 229.17 798.75 230.19 798.75C230.778 798.75 231.234 798.624 231.558 798.372C231.894 798.12 232.062 797.802 232.062 797.418C232.062 796.542 231.252 796.104 229.632 796.104H229.002V793.944H229.632C230.268 793.944 230.79 793.836 231.198 793.62C231.606 793.404 231.81 793.08 231.81 792.648C231.81 791.82 231.27 791.406 230.19 791.406C229.362 791.406 228.528 791.664 227.688 792.18ZM236.389 792.18V789.732C237.277 789.288 238.171 789.066 239.071 789.066C240.343 789.066 241.351 789.372 242.095 789.984C242.839 790.584 243.211 791.37 243.211 792.342C243.211 793.674 242.605 794.592 241.393 795.096C242.761 795.42 243.445 796.308 243.445 797.76C243.445 798.768 243.061 799.578 242.293 800.19C241.537 800.79 240.475 801.09 239.107 801.09C237.823 801.09 236.761 800.886 235.921 800.478V797.958C236.881 798.486 237.871 798.75 238.891 798.75C239.479 798.75 239.935 798.624 240.259 798.372C240.595 798.12 240.763 797.802 240.763 797.418C240.763 796.542 239.953 796.104 238.333 796.104H237.703V793.944H238.333C238.969 793.944 239.491 793.836 239.899 793.62C240.307 793.404 240.511 793.08 240.511 792.648C240.511 791.82 239.971 791.406 238.891 791.406C238.063 791.406 237.229 791.664 236.389 792.18ZM244.046 802.854L250.508 788.274H253.244L246.764 802.854H244.046ZM256.644 798.768H260.82V801H252.972V798.966C254.268 798.078 255.408 797.094 256.392 796.014C257.388 794.934 257.886 793.98 257.886 793.152C257.886 792.648 257.736 792.252 257.436 791.964C257.136 791.664 256.68 791.514 256.068 791.514C255.048 791.514 254.082 791.892 253.17 792.648V790.11C253.566 789.822 254.082 789.576 254.718 789.372C255.354 789.168 255.978 789.066 256.59 789.066C257.814 789.066 258.786 789.39 259.506 790.038C260.238 790.674 260.604 791.568 260.604 792.72C260.604 794.796 259.284 796.812 256.644 798.768ZM266.021 794.772C266.741 794.772 267.323 794.502 267.767 793.962C267.623 792.258 267.047 791.406 266.039 791.406C265.571 791.406 265.193 791.556 264.905 791.856C264.629 792.156 264.491 792.576 264.491 793.116C264.491 793.596 264.629 793.992 264.905 794.304C265.181 794.616 265.553 794.772 266.021 794.772ZM262.655 800.802V798.318C263.279 798.618 263.897 798.768 264.509 798.768C265.445 798.768 266.171 798.558 266.687 798.138C267.203 797.706 267.539 797.034 267.695 796.122C267.179 796.638 266.399 796.896 265.355 796.896C264.299 796.896 263.441 796.56 262.781 795.888C262.133 795.204 261.809 794.298 261.809 793.17C261.809 791.994 262.175 791.016 262.907 790.236C263.651 789.456 264.653 789.066 265.913 789.066C267.317 789.066 268.415 789.576 269.207 790.596C270.011 791.604 270.413 792.984 270.413 794.736C270.413 796.884 269.903 798.492 268.883 799.56C267.863 800.616 266.501 801.144 264.797 801.144C263.981 801.144 263.267 801.03 262.655 800.802ZM271.857 797.364V795.204H276.663V797.364H271.857ZM281.17 791.424V793.422C281.434 793.386 281.698 793.368 281.962 793.368C283.246 793.368 284.23 793.698 284.914 794.358C285.598 795.018 285.94 795.918 285.94 797.058C285.94 798.282 285.532 799.266 284.716 800.01C283.912 800.742 282.766 801.108 281.278 801.108C279.97 801.108 278.914 800.898 278.11 800.478V797.994C278.926 798.498 279.838 798.75 280.846 798.75C282.454 798.75 283.258 798.174 283.258 797.022C283.258 796.59 283.09 796.248 282.754 795.996C282.43 795.744 281.938 795.618 281.278 795.618C280.354 795.618 279.466 795.816 278.614 796.212V789.192H285.22V791.424H281.17ZM286.84 789.21H294.76V791.442L290.188 801H287.416L292.006 791.442H286.84V789.21ZM295.939 797.364V795.204H300.745V797.364H295.939ZM304.677 796.266H307.269V790.938L304.677 796.266ZM311.319 796.266V798.498H309.879V801H307.269V798.498H302.103V796.266L305.703 789.192H309.879V796.266H311.319ZM316.71 799.02C317.178 799.02 317.544 798.858 317.808 798.534C318.072 798.21 318.204 797.778 318.204 797.238C318.204 796.746 318.072 796.356 317.808 796.068C317.556 795.768 317.196 795.618 316.728 795.618C316.08 795.618 315.51 795.876 315.018 796.392C315.15 798.144 315.714 799.02 316.71 799.02ZM319.968 789.3V791.73C319.5 791.478 318.954 791.352 318.33 791.352C317.478 791.352 316.776 791.616 316.224 792.144C315.684 792.66 315.318 793.356 315.126 794.232C315.774 793.68 316.548 793.404 317.448 793.404C318.48 793.404 319.308 793.746 319.932 794.43C320.568 795.114 320.886 796.032 320.886 797.184C320.886 798.372 320.508 799.368 319.752 800.172C319.008 800.964 317.988 801.36 316.692 801.36C315.24 801.36 314.142 800.844 313.398 799.812C312.666 798.768 312.3 797.37 312.3 795.618C312.3 793.614 312.846 792.012 313.938 790.812C315.042 789.612 316.434 789.012 318.114 789.012C318.75 789.012 319.368 789.108 319.968 789.3Z" fill="#EAEAEA"/>
<path d="M151 746H51V846H151V746Z" fill="#B87333"/>
<path d="M181.722 672.23L182.226 669.8H179.778L179.256 672.23H181.722ZM186.816 669.8H184.458L183.936 672.23H186.204V674.228H183.522L182.928 677H180.714L181.29 674.228H178.842L178.248 677H176.034L176.61 674.228H174.81V672.23H177.042L177.546 669.8H175.422V667.712H177.996L178.59 664.886H180.822L180.228 667.712H182.676L183.27 664.886H185.502L184.908 667.712H186.816V669.8ZM188.253 671.06C188.253 669.188 188.613 667.706 189.333 666.614C190.053 665.522 191.121 664.976 192.537 664.976C193.953 664.976 195.021 665.522 195.741 666.614C196.473 667.706 196.839 669.188 196.839 671.06C196.839 672.908 196.473 674.384 195.741 675.488C195.021 676.592 193.953 677.144 192.537 677.144C191.121 677.144 190.053 676.598 189.333 675.506C188.613 674.402 188.253 672.92 188.253 671.06ZM192.537 667.316C191.469 667.316 190.935 668.564 190.935 671.06C190.935 673.556 191.469 674.804 192.537 674.804C193.617 674.804 194.157 673.556 194.157 671.06C194.157 668.564 193.617 667.316 192.537 667.316ZM198.097 671.06C198.097 669.188 198.457 667.706 199.177 666.614C199.897 665.522 200.965 664.976 202.381 664.976C203.797 664.976 204.865 665.522 205.585 666.614C206.317 667.706 206.683 669.188 206.683 671.06C206.683 672.908 206.317 674.384 205.585 675.488C204.865 676.592 203.797 677.144 202.381 677.144C200.965 677.144 199.897 676.598 199.177 675.506C198.457 674.402 198.097 672.92 198.097 671.06ZM202.381 667.316C201.313 667.316 200.779 668.564 200.779 671.06C200.779 673.556 201.313 674.804 202.381 674.804C203.461 674.804 204.001 673.556 204.001 671.06C204.001 668.564 203.461 667.316 202.381 667.316ZM212.027 672.284H214.943L214.817 671.852C214.469 670.676 214.181 669.674 213.953 668.846C213.737 668.018 213.605 667.484 213.557 667.244L213.485 666.884C213.389 667.544 212.945 669.2 212.153 671.852L212.027 672.284ZM216.347 677L215.609 674.516H211.361L210.623 677H207.725L211.775 664.868H215.267L219.317 677H216.347ZM223.752 674.732H225.012C226.128 674.732 226.986 674.384 227.586 673.688C228.198 672.992 228.504 672.008 228.504 670.736C228.504 669.656 228.198 668.792 227.586 668.144C226.974 667.484 226.11 667.154 224.994 667.154H223.752V674.732ZM220.908 664.868H225.084C226.908 664.868 228.402 665.432 229.566 666.56C230.73 667.676 231.312 669.068 231.312 670.736C231.312 672.68 230.736 674.21 229.584 675.326C228.444 676.442 226.932 677 225.048 677H220.908V664.868ZM235.139 672.266H237.731V666.938L235.139 672.266ZM241.781 672.266V674.498H240.341V677H237.731V674.498H232.565V672.266L236.165 665.192H240.341V672.266H241.781ZM246.147 674.732H247.407C248.523 674.732 249.381 674.384 249.981 673.688C250.593 672.992 250.899 672.008 250.899 670.736C250.899 669.656 250.593 668.792 249.981 668.144C249.369 667.484 248.505 667.154 247.389 667.154H246.147V674.732ZM243.303 664.868H247.479C249.303 664.868 250.797 665.432 251.961 666.56C253.125 667.676 253.707 669.068 253.707 670.736C253.707 672.68 253.131 674.21 251.979 675.326C250.839 676.442 249.327 677 247.443 677H243.303V664.868ZM254.384 678.854L260.846 664.274H263.582L257.102 678.854H254.384ZM262.95 669.836V667.154L266.262 665.228H268.53V677H265.92V668.054L262.95 669.836ZM272.721 672.266H275.313V666.938L272.721 672.266ZM279.363 672.266V674.498H277.923V677H275.313V674.498H270.147V672.266L273.747 665.192H277.923V672.266H279.363ZM280.075 665.21H287.995V667.442L283.423 677H280.651L285.241 667.442H280.075V665.21ZM289.173 673.364V671.204H293.979V673.364H289.173ZM294.977 669.836V667.154L298.289 665.228H300.557V677H297.947V668.054L294.977 669.836ZM302.265 671.06C302.265 669.188 302.625 667.706 303.345 666.614C304.065 665.522 305.133 664.976 306.549 664.976C307.965 664.976 309.033 665.522 309.753 666.614C310.485 667.706 310.851 669.188 310.851 671.06C310.851 672.908 310.485 674.384 309.753 675.488C309.033 676.592 307.965 677.144 306.549 677.144C305.133 677.144 304.065 676.598 303.345 675.506C302.625 674.402 302.265 672.92 302.265 671.06ZM306.549 667.316C305.481 667.316 304.947 668.564 304.947 671.06C304.947 673.556 305.481 674.804 306.549 674.804C307.629 674.804 308.169 673.556 308.169 671.06C308.169 668.564 307.629 667.316 306.549 667.316ZM312.109 671.06C312.109 669.188 312.469 667.706 313.189 666.614C313.909 665.522 314.977 664.976 316.393 664.976C317.809 664.976 318.877 665.522 319.597 666.614C320.329 667.706 320.695 669.188 320.695 671.06C320.695 672.908 320.329 674.384 319.597 675.488C318.877 676.592 317.809 677.144 316.393 677.144C314.977 677.144 313.909 676.598 313.189 675.506C312.469 674.402 312.109 672.92 312.109 671.06ZM316.393 667.316C315.325 667.316 314.791 668.564 314.791 671.06C314.791 673.556 315.325 674.804 316.393 674.804C317.473 674.804 318.013 673.556 318.013 671.06C318.013 668.564 317.473 667.316 316.393 667.316ZM322.132 673.364V671.204H326.938V673.364H322.132ZM328.764 668.18V665.732C329.652 665.288 330.546 665.066 331.446 665.066C332.718 665.066 333.726 665.372 334.47 665.984C335.214 666.584 335.586 667.37 335.586 668.342C335.586 669.674 334.98 670.592 333.768 671.096C335.136 671.42 335.82 672.308 335.82 673.76C335.82 674.768 335.436 675.578 334.668 676.19C333.912 676.79 332.85 677.09 331.482 677.09C330.198 677.09 329.136 676.886 328.296 676.478V673.958C329.256 674.486 330.246 674.75 331.266 674.75C331.854 674.75 332.31 674.624 332.634 674.372C332.97 674.12 333.138 673.802 333.138 673.418C333.138 672.542 332.328 672.104 330.708 672.104H330.078V669.944H330.708C331.344 669.944 331.866 669.836 332.274 669.62C332.682 669.404 332.886 669.08 332.886 668.648C332.886 667.82 332.346 667.406 331.266 667.406C330.438 667.406 329.604 667.664 328.764 668.18ZM339.571 672.266H342.163V666.938L339.571 672.266ZM346.213 672.266V674.498H344.773V677H342.163V674.498H336.997V672.266L340.597 665.192H344.773V672.266H346.213Z" fill="#EAEAEA"/>
<path d="M150 622H50V722H150V622Z" fill="#00AD4D"/>
<path d="M186.722 548.23L187.226 545.8H184.778L184.256 548.23H186.722ZM191.816 545.8H189.458L188.936 548.23H191.204V550.228H188.522L187.928 553H185.714L186.29 550.228H183.842L183.248 553H181.034L181.61 550.228H179.81V548.23H182.042L182.546 545.8H180.422V543.712H182.996L183.59 540.886H185.822L185.228 543.712H187.676L188.27 540.886H190.502L189.908 543.712H191.816V545.8ZM193.253 547.06C193.253 545.188 193.613 543.706 194.333 542.614C195.053 541.522 196.121 540.976 197.537 540.976C198.953 540.976 200.021 541.522 200.741 542.614C201.473 543.706 201.839 545.188 201.839 547.06C201.839 548.908 201.473 550.384 200.741 551.488C200.021 552.592 198.953 553.144 197.537 553.144C196.121 553.144 195.053 552.598 194.333 551.506C193.613 550.402 193.253 548.92 193.253 547.06ZM197.537 543.316C196.469 543.316 195.935 544.564 195.935 547.06C195.935 549.556 196.469 550.804 197.537 550.804C198.617 550.804 199.157 549.556 199.157 547.06C199.157 544.564 198.617 543.316 197.537 543.316ZM203.097 547.06C203.097 545.188 203.457 543.706 204.177 542.614C204.897 541.522 205.965 540.976 207.381 540.976C208.797 540.976 209.865 541.522 210.585 542.614C211.317 543.706 211.683 545.188 211.683 547.06C211.683 548.908 211.317 550.384 210.585 551.488C209.865 552.592 208.797 553.144 207.381 553.144C205.965 553.144 204.897 552.598 204.177 551.506C203.457 550.402 203.097 548.92 203.097 547.06ZM207.381 543.316C206.313 543.316 205.779 544.564 205.779 547.06C205.779 549.556 206.313 550.804 207.381 550.804C208.461 550.804 209.001 549.556 209.001 547.06C209.001 544.564 208.461 543.316 207.381 543.316ZM217.351 551.02C217.819 551.02 218.185 550.858 218.449 550.534C218.713 550.21 218.845 549.778 218.845 549.238C218.845 548.746 218.713 548.356 218.449 548.068C218.197 547.768 217.837 547.618 217.369 547.618C216.721 547.618 216.151 547.876 215.659 548.392C215.791 550.144 216.355 551.02 217.351 551.02ZM220.609 541.3V543.73C220.141 543.478 219.595 543.352 218.971 543.352C218.119 543.352 217.417 543.616 216.865 544.144C216.325 544.66 215.959 545.356 215.767 546.232C216.415 545.68 217.189 545.404 218.089 545.404C219.121 545.404 219.949 545.746 220.573 546.43C221.209 547.114 221.527 548.032 221.527 549.184C221.527 550.372 221.149 551.368 220.393 552.172C219.649 552.964 218.629 553.36 217.333 553.36C215.881 553.36 214.783 552.844 214.039 551.812C213.307 550.768 212.941 549.37 212.941 547.618C212.941 545.614 213.487 544.012 214.579 542.812C215.683 541.612 217.075 541.012 218.755 541.012C219.391 541.012 220.009 541.108 220.609 541.3ZM222.987 544.18V541.732C223.875 541.288 224.769 541.066 225.669 541.066C226.941 541.066 227.949 541.372 228.693 541.984C229.437 542.584 229.809 543.37 229.809 544.342C229.809 545.674 229.203 546.592 227.991 547.096C229.359 547.42 230.043 548.308 230.043 549.76C230.043 550.768 229.659 551.578 228.891 552.19C228.135 552.79 227.073 553.09 225.705 553.09C224.421 553.09 223.359 552.886 222.519 552.478V549.958C223.479 550.486 224.469 550.75 225.489 550.75C226.077 550.75 226.533 550.624 226.857 550.372C227.193 550.12 227.361 549.802 227.361 549.418C227.361 548.542 226.551 548.104 224.931 548.104H224.301V545.944H224.931C225.567 545.944 226.089 545.836 226.497 545.62C226.905 545.404 227.109 545.08 227.109 544.648C227.109 543.82 226.569 543.406 225.489 543.406C224.661 543.406 223.827 543.664 222.987 544.18ZM233.794 548.266H236.386V542.938L233.794 548.266ZM240.436 548.266V550.498H238.996V553H236.386V550.498H231.22V548.266L234.82 541.192H238.996V548.266H240.436ZM241.417 547.06C241.417 545.188 241.777 543.706 242.497 542.614C243.217 541.522 244.285 540.976 245.701 540.976C247.117 540.976 248.185 541.522 248.905 542.614C249.637 543.706 250.003 545.188 250.003 547.06C250.003 548.908 249.637 550.384 248.905 551.488C248.185 552.592 247.117 553.144 245.701 553.144C244.285 553.144 243.217 552.598 242.497 551.506C241.777 550.402 241.417 548.92 241.417 547.06ZM245.701 543.316C244.633 543.316 244.099 544.564 244.099 547.06C244.099 549.556 244.633 550.804 245.701 550.804C246.781 550.804 247.321 549.556 247.321 547.06C247.321 544.564 246.781 543.316 245.701 543.316ZM250.595 554.854L257.057 540.274H259.793L253.313 554.854H250.595ZM259.16 545.836V543.154L262.472 541.228H264.74V553H262.13V544.054L259.16 545.836ZM269.508 543.424V545.422C269.772 545.386 270.036 545.368 270.3 545.368C271.584 545.368 272.568 545.698 273.252 546.358C273.936 547.018 274.278 547.918 274.278 549.058C274.278 550.282 273.87 551.266 273.054 552.01C272.25 552.742 271.104 553.108 269.616 553.108C268.308 553.108 267.252 552.898 266.448 552.478V549.994C267.264 550.498 268.176 550.75 269.184 550.75C270.792 550.75 271.596 550.174 271.596 549.022C271.596 548.59 271.428 548.248 271.092 547.996C270.768 547.744 270.276 547.618 269.616 547.618C268.692 547.618 267.804 547.816 266.952 548.212V541.192H273.558V543.424H269.508ZM279.39 546.772C280.11 546.772 280.692 546.502 281.136 545.962C280.992 544.258 280.416 543.406 279.408 543.406C278.94 543.406 278.562 543.556 278.274 543.856C277.998 544.156 277.86 544.576 277.86 545.116C277.86 545.596 277.998 545.992 278.274 546.304C278.55 546.616 278.922 546.772 279.39 546.772ZM276.024 552.802V550.318C276.648 550.618 277.266 550.768 277.878 550.768C278.814 550.768 279.54 550.558 280.056 550.138C280.572 549.706 280.908 549.034 281.064 548.122C280.548 548.638 279.768 548.896 278.724 548.896C277.668 548.896 276.81 548.56 276.15 547.888C275.502 547.204 275.178 546.298 275.178 545.17C275.178 543.994 275.544 543.016 276.276 542.236C277.02 541.456 278.022 541.066 279.282 541.066C280.686 541.066 281.784 541.576 282.576 542.596C283.38 543.604 283.782 544.984 283.782 546.736C283.782 548.884 283.272 550.492 282.252 551.56C281.232 552.616 279.87 553.144 278.166 553.144C277.35 553.144 276.636 553.03 276.024 552.802ZM285.226 549.364V547.204H290.032V549.364H285.226ZM291.03 545.836V543.154L294.342 541.228H296.61V553H294V544.054L291.03 545.836ZM298.318 547.06C298.318 545.188 298.678 543.706 299.398 542.614C300.118 541.522 301.186 540.976 302.602 540.976C304.018 540.976 305.086 541.522 305.806 542.614C306.538 543.706 306.904 545.188 306.904 547.06C306.904 548.908 306.538 550.384 305.806 551.488C305.086 552.592 304.018 553.144 302.602 553.144C301.186 553.144 300.118 552.598 299.398 551.506C298.678 550.402 298.318 548.92 298.318 547.06ZM302.602 543.316C301.534 543.316 301 544.564 301 547.06C301 549.556 301.534 550.804 302.602 550.804C303.682 550.804 304.222 549.556 304.222 547.06C304.222 544.564 303.682 543.316 302.602 543.316ZM308.161 547.06C308.161 545.188 308.521 543.706 309.241 542.614C309.961 541.522 311.029 540.976 312.445 540.976C313.861 540.976 314.929 541.522 315.649 542.614C316.381 543.706 316.747 545.188 316.747 547.06C316.747 548.908 316.381 550.384 315.649 551.488C314.929 552.592 313.861 553.144 312.445 553.144C311.029 553.144 309.961 552.598 309.241 551.506C308.521 550.402 308.161 548.92 308.161 547.06ZM312.445 543.316C311.377 543.316 310.843 544.564 310.843 547.06C310.843 549.556 311.377 550.804 312.445 550.804C313.525 550.804 314.065 549.556 314.065 547.06C314.065 544.564 313.525 543.316 312.445 543.316ZM318.185 549.364V547.204H322.991V549.364H318.185ZM323.989 545.836V543.154L327.301 541.228H329.569V553H326.959V544.054L323.989 545.836ZM335.218 546.772C335.938 546.772 336.52 546.502 336.964 545.962C336.82 544.258 336.244 543.406 335.236 543.406C334.768 543.406 334.39 543.556 334.102 543.856C333.826 544.156 333.688 544.576 333.688 545.116C333.688 545.596 333.826 545.992 334.102 546.304C334.378 546.616 334.75 546.772 335.218 546.772ZM331.852 552.802V550.318C332.476 550.618 333.094 550.768 333.706 550.768C334.642 550.768 335.368 550.558 335.884 550.138C336.4 549.706 336.736 549.034 336.892 548.122C336.376 548.638 335.596 548.896 334.552 548.896C333.496 548.896 332.638 548.56 331.978 547.888C331.33 547.204 331.006 546.298 331.006 545.17C331.006 543.994 331.372 543.016 332.104 542.236C332.848 541.456 333.85 541.066 335.11 541.066C336.514 541.066 337.612 541.576 338.404 542.596C339.208 543.604 339.61 544.984 339.61 546.736C339.61 548.884 339.1 550.492 338.08 551.56C337.06 552.616 335.698 553.144 333.994 553.144C333.178 553.144 332.464 553.03 331.852 552.802Z" fill="white"/>
<path d="M150 498H50V598H150V498Z" fill="#006340"/>
<path d="M61.65 445.5V442.5H70.75V459H69.25L67.95 455.8C67.25 457 66.3333 457.967 65.2 458.7C64.0667 459.4 62.8333 459.75 61.5 459.75C56.6667 459.75 54.25 457.417 54.25 452.75V432.75C54.25 430.517 54.9333 428.8 56.3 427.6C57.6667 426.367 59.7167 425.75 62.45 425.75C65.1833 425.75 67.25 426.367 68.65 427.6C70.05 428.8 70.75 430.517 70.75 432.75V435.5H67.25V432.75C67.25 430.083 65.6667 428.75 62.5 428.75C59.3333 428.75 57.75 430.083 57.75 432.75V452.75C57.75 454.017 58.0167 455 58.55 455.7C59.0833 456.4 60.05 456.75 61.45 456.75C62.8833 456.75 64.2 456.183 65.4 455.05C66.6333 453.917 67.25 452.817 67.25 451.75V445.5H61.65ZM86.65 445.5V442.5H95.75V459H94.25L92.95 455.8C92.25 457 91.3333 457.967 90.2 458.7C89.0667 459.4 87.8333 459.75 86.5 459.75C81.6667 459.75 79.25 457.417 79.25 452.75V432.75C79.25 430.517 79.9333 428.8 81.3 427.6C82.6667 426.367 84.7167 425.75 87.45 425.75C90.1833 425.75 92.25 426.367 93.65 427.6C95.05 428.8 95.75 430.517 95.75 432.75V435.5H92.25V432.75C92.25 430.083 90.6667 428.75 87.5 428.75C84.3333 428.75 82.75 430.083 82.75 432.75V452.75C82.75 454.017 83.0167 455 83.55 455.7C84.0833 456.4 85.05 456.75 86.45 456.75C87.8833 456.75 89.2 456.183 90.4 455.05C91.6333 453.917 92.25 452.817 92.25 451.75V445.5H86.65ZM116.523 426.5H124.073C126.673 426.5 128.64 427.117 129.973 428.35C131.34 429.583 132.023 431.3 132.023 433.5V436.5C132.023 439.333 130.84 441.15 128.473 441.95C131.173 442.683 132.523 444.533 132.523 447.5V452C132.523 454.233 131.857 455.967 130.523 457.2C129.19 458.4 127.207 459 124.573 459H116.523V426.5ZM129.023 452V447.5C129.023 446.433 128.623 445.467 127.823 444.6C127.023 443.7 125.94 443.25 124.573 443.25H120.023V456H124.573C125.973 456 127.057 455.617 127.823 454.85C128.623 454.05 129.023 453.1 129.023 452ZM128.523 436.5V433.5C128.523 432.433 128.123 431.5 127.323 430.7C126.557 429.9 125.473 429.5 124.073 429.5H120.023V440.75H124.073C125.473 440.75 126.557 440.317 127.323 439.45C128.123 438.583 128.523 437.6 128.523 436.5ZM145.268 459H141.768V426.5H143.268L144.718 430.2C145.784 427.233 147.484 425.75 149.818 425.75C153.784 425.75 155.768 427.917 155.768 432.25V435.5H152.418V432.05C152.418 429.85 151.501 428.75 149.668 428.75C148.568 428.75 147.551 429.383 146.618 430.65C145.718 431.917 145.268 433.75 145.268 436.15V459ZM177.287 459H175.787L174.487 455.8C173.787 457 172.87 457.967 171.737 458.7C170.604 459.4 169.354 459.75 167.987 459.75C163.187 459.75 160.787 457.417 160.787 452.75V447.75C160.787 443.083 163.187 440.75 167.987 440.75H173.787V432.55C173.787 431.35 173.404 430.417 172.637 429.75C171.87 429.083 170.737 428.75 169.237 428.75C166.27 428.75 164.787 430.017 164.787 432.55V435.5H161.287V432.75C161.287 430.517 161.937 428.8 163.237 427.6C164.57 426.367 166.57 425.75 169.237 425.75C171.904 425.75 173.904 426.367 175.237 427.6C176.604 428.8 177.287 430.517 177.287 432.75V459ZM173.787 443.75H167.987C166.587 443.75 165.62 444.1 165.087 444.8C164.554 445.5 164.287 446.483 164.287 447.75V452.75C164.287 454.017 164.554 455 165.087 455.7C165.62 456.4 166.587 456.75 167.987 456.75C169.387 456.75 170.687 456.217 171.887 455.15C173.087 454.05 173.72 452.967 173.787 451.9V443.75ZM190.287 459H186.787V426.5H188.287L189.537 429.75C191.137 427.083 193.354 425.75 196.187 425.75C201.087 425.75 203.537 428.083 203.537 432.75V459H200.037V432.75C200.037 431.483 199.754 430.5 199.187 429.8C198.654 429.1 197.654 428.75 196.187 428.75C194.72 428.75 193.37 429.317 192.137 430.45C190.904 431.583 190.287 432.683 190.287 433.75V459ZM221.107 459H213.057V426.5H221.107C223.707 426.5 225.673 427.117 227.007 428.35C228.373 429.583 229.057 431.3 229.057 433.5V452C229.057 454.233 228.39 455.967 227.057 457.2C225.723 458.4 223.74 459 221.107 459ZM225.557 452V433.5C225.557 432.233 225.173 431.25 224.407 430.55C223.64 429.85 222.54 429.5 221.107 429.5H216.557V456H221.107C224.073 456 225.557 454.667 225.557 452ZM265.724 452.75C265.724 457.417 262.908 459.75 257.274 459.75C251.641 459.75 248.824 457.417 248.824 452.75V448.5H252.324V452.95C252.324 454.15 252.741 455.083 253.574 455.75C254.408 456.417 255.641 456.75 257.274 456.75C258.908 456.75 260.141 456.417 260.974 455.75C261.808 455.083 262.224 454.183 262.224 453.05C262.224 451.883 262.091 450.967 261.824 450.3C261.591 449.6 261.091 448.867 260.324 448.1L251.524 439.5C250.491 438.467 249.774 437.467 249.374 436.5C249.008 435.5 248.824 434.25 248.824 432.75C248.824 430.517 249.508 428.8 250.874 427.6C252.274 426.367 254.374 425.75 257.174 425.75C262.541 425.75 265.224 428.083 265.224 432.75V437H261.724V432.55C261.724 431.35 261.324 430.417 260.524 429.75C259.758 429.083 258.591 428.75 257.024 428.75C255.458 428.75 254.274 429.083 253.474 429.75C252.708 430.417 252.324 431.333 252.324 432.5C252.324 433.667 252.441 434.583 252.674 435.25C252.908 435.917 253.424 436.617 254.224 437.35L263.174 445.95C264.141 447.017 264.808 448.05 265.174 449.05C265.541 450.017 265.724 451.25 265.724 452.75ZM286.977 452.75V450H290.477V452.75C290.477 454.983 289.793 456.717 288.427 457.95C287.06 459.15 285.01 459.75 282.277 459.75C279.543 459.75 277.477 459.15 276.077 457.95C274.677 456.717 273.977 454.983 273.977 452.75V432.75C273.977 430.517 274.66 428.8 276.027 427.6C277.393 426.367 279.443 425.75 282.177 425.75C284.91 425.75 286.977 426.367 288.377 427.6C289.777 428.8 290.477 430.517 290.477 432.75V443.75H277.477V452.75C277.477 455.417 279.06 456.75 282.227 456.75C285.393 456.75 286.977 455.417 286.977 452.75ZM277.477 432.75V440.75H286.977V432.75C286.977 430.083 285.393 428.75 282.227 428.75C279.06 428.75 277.477 430.083 277.477 432.75ZM311.977 452.75V450H315.477V452.75C315.477 454.983 314.793 456.717 313.427 457.95C312.06 459.15 310.01 459.75 307.277 459.75C304.543 459.75 302.477 459.15 301.077 457.95C299.677 456.717 298.977 454.983 298.977 452.75V432.75C298.977 430.517 299.66 428.8 301.027 427.6C302.393 426.367 304.443 425.75 307.177 425.75C309.91 425.75 311.977 426.367 313.377 427.6C314.777 428.8 315.477 430.517 315.477 432.75V437.5H311.977V432.75C311.977 430.083 310.393 428.75 307.227 428.75C304.06 428.75 302.477 430.083 302.477 432.75V452.75C302.477 455.417 304.06 456.75 307.227 456.75C310.393 456.75 311.977 455.417 311.977 452.75ZM340.488 432.75V452.75C340.488 454.983 339.772 456.717 338.338 457.95C336.938 459.15 334.822 459.75 331.988 459.75C329.188 459.75 327.072 459.15 325.638 457.95C324.205 456.717 323.488 454.983 323.488 452.75V432.75C323.488 430.517 324.188 428.8 325.588 427.6C327.022 426.367 329.138 425.75 331.938 425.75C334.772 425.75 336.905 426.367 338.338 427.6C339.772 428.8 340.488 430.517 340.488 432.75ZM336.988 452.75V432.75C336.988 430.083 335.322 428.75 331.988 428.75C328.655 428.75 326.988 430.083 326.988 432.75V452.75C326.988 455.417 328.655 456.75 331.988 456.75C335.322 456.75 336.988 455.417 336.988 452.75ZM353.227 459H349.727V426.5H351.227L352.477 429.75C354.077 427.083 356.293 425.75 359.127 425.75C364.027 425.75 366.477 428.083 366.477 432.75V459H362.977V432.75C362.977 431.483 362.693 430.5 362.127 429.8C361.593 429.1 360.593 428.75 359.127 428.75C357.66 428.75 356.31 429.317 355.077 430.45C353.843 431.583 353.227 432.683 353.227 433.75V459ZM384.046 459H375.996V426.5H384.046C386.646 426.5 388.613 427.117 389.946 428.35C391.313 429.583 391.996 431.3 391.996 433.5V452C391.996 454.233 391.329 455.967 389.996 457.2C388.663 458.4 386.679 459 384.046 459ZM388.496 452V433.5C388.496 432.233 388.113 431.25 387.346 430.55C386.579 429.85 385.479 429.5 384.046 429.5H379.496V456H384.046C387.013 456 388.496 454.667 388.496 452ZM416.74 459H415.24L413.94 455.8C413.24 457 412.324 457.967 411.19 458.7C410.057 459.4 408.807 459.75 407.44 459.75C402.64 459.75 400.24 457.417 400.24 452.75V447.75C400.24 443.083 402.64 440.75 407.44 440.75H413.24V432.55C413.24 431.35 412.857 430.417 412.09 429.75C411.324 429.083 410.19 428.75 408.69 428.75C405.724 428.75 404.24 430.017 404.24 432.55V435.5H400.74V432.75C400.74 430.517 401.39 428.8 402.69 427.6C404.024 426.367 406.024 425.75 408.69 425.75C411.357 425.75 413.357 426.367 414.69 427.6C416.057 428.8 416.74 430.517 416.74 432.75V459ZM413.24 443.75H407.44C406.04 443.75 405.074 444.1 404.54 444.8C404.007 445.5 403.74 446.483 403.74 447.75V452.75C403.74 454.017 404.007 455 404.54 455.7C405.074 456.4 406.04 456.75 407.44 456.75C408.84 456.75 410.14 456.217 411.34 455.15C412.54 454.05 413.174 452.967 413.24 451.9V443.75ZM429.74 459H426.24V426.5H427.74L429.19 430.2C430.257 427.233 431.957 425.75 434.29 425.75C438.257 425.75 440.24 427.917 440.24 432.25V435.5H436.89V432.05C436.89 429.85 435.974 428.75 434.14 428.75C433.04 428.75 432.024 429.383 431.09 430.65C430.19 431.917 429.74 433.75 429.74 436.15V459ZM449.76 459H446.26V426.5H449.76V459ZM471.986 452.75V450H475.486V452.75C475.486 454.983 474.803 456.717 473.436 457.95C472.07 459.15 470.02 459.75 467.286 459.75C464.553 459.75 462.486 459.15 461.086 457.95C459.686 456.717 458.986 454.983 458.986 452.75V432.75C458.986 430.517 459.67 428.8 461.036 427.6C462.403 426.367 464.453 425.75 467.186 425.75C469.92 425.75 471.986 426.367 473.386 427.6C474.786 428.8 475.486 430.517 475.486 432.75V443.75H462.486V452.75C462.486 455.417 464.07 456.75 467.236 456.75C470.403 456.75 471.986 455.417 471.986 452.75ZM462.486 432.75V440.75H471.986V432.75C471.986 430.083 470.403 428.75 467.236 428.75C464.07 428.75 462.486 430.083 462.486 432.75ZM500.636 452.75C500.636 457.417 497.82 459.75 492.186 459.75C486.553 459.75 483.736 457.417 483.736 452.75V448.5H487.236V452.95C487.236 454.15 487.653 455.083 488.486 455.75C489.32 456.417 490.553 456.75 492.186 456.75C493.82 456.75 495.053 456.417 495.886 455.75C496.72 455.083 497.136 454.183 497.136 453.05C497.136 451.883 497.003 450.967 496.736 450.3C496.503 449.6 496.003 448.867 495.236 448.1L486.436 439.5C485.403 438.467 484.686 437.467 484.286 436.5C483.92 435.5 483.736 434.25 483.736 432.75C483.736 430.517 484.42 428.8 485.786 427.6C487.186 426.367 489.286 425.75 492.086 425.75C497.453 425.75 500.136 428.083 500.136 432.75V437H496.636V432.55C496.636 431.35 496.236 430.417 495.436 429.75C494.67 429.083 493.503 428.75 491.936 428.75C490.37 428.75 489.186 429.083 488.386 429.75C487.62 430.417 487.236 431.333 487.236 432.5C487.236 433.667 487.353 434.583 487.586 435.25C487.82 435.917 488.336 436.617 489.136 437.35L498.086 445.95C499.053 447.017 499.72 448.05 500.086 449.05C500.453 450.017 500.636 451.25 500.636 452.75Z" fill="#EAEAEA"/>
<path d="M181.722 305.23L182.226 302.8H179.778L179.256 305.23H181.722ZM186.816 302.8H184.458L183.936 305.23H186.204V307.228H183.522L182.928 310H180.714L181.29 307.228H178.842L178.248 310H176.034L176.61 307.228H174.81V305.23H177.042L177.546 302.8H175.422V300.712H177.996L178.59 297.886H180.822L180.228 300.712H182.676L183.27 297.886H185.502L184.908 300.712H186.816V302.8ZM191.583 307.786H196.335V310H188.793V297.868H196.263V300.082H191.583V302.836H195.759V305.032H191.583V307.786ZM201.374 307.786H206.126V310H198.584V297.868H206.054V300.082H201.374V302.836H205.55V305.032H201.374V307.786ZM215.773 300.082H211.165V303.214H215.179V305.428H211.165V310H208.375V297.868H215.773V300.082ZM217.319 301.18V298.732C218.207 298.288 219.101 298.066 220.001 298.066C221.273 298.066 222.281 298.372 223.025 298.984C223.769 299.584 224.141 300.37 224.141 301.342C224.141 302.674 223.535 303.592 222.323 304.096C223.691 304.42 224.375 305.308 224.375 306.76C224.375 307.768 223.991 308.578 223.223 309.19C222.467 309.79 221.405 310.09 220.037 310.09C218.753 310.09 217.691 309.886 216.851 309.478V306.958C217.811 307.486 218.801 307.75 219.821 307.75C220.409 307.75 220.865 307.624 221.189 307.372C221.525 307.12 221.693 306.802 221.693 306.418C221.693 305.542 220.883 305.104 219.263 305.104H218.633V302.944H219.263C219.899 302.944 220.421 302.836 220.829 302.62C221.237 302.404 221.441 302.08 221.441 301.648C221.441 300.82 220.901 300.406 219.821 300.406C218.993 300.406 218.159 300.664 217.319 301.18ZM225.192 302.836V300.154L228.504 298.228H230.772V310H228.162V301.054L225.192 302.836ZM232.48 304.06C232.48 302.188 232.84 300.706 233.56 299.614C234.28 298.522 235.348 297.976 236.764 297.976C238.18 297.976 239.248 298.522 239.968 299.614C240.7 300.706 241.066 302.188 241.066 304.06C241.066 305.908 240.7 307.384 239.968 308.488C239.248 309.592 238.18 310.144 236.764 310.144C235.348 310.144 234.28 309.598 233.56 308.506C232.84 307.402 232.48 305.92 232.48 304.06ZM236.764 300.316C235.696 300.316 235.162 301.564 235.162 304.06C235.162 306.556 235.696 307.804 236.764 307.804C237.844 307.804 238.384 306.556 238.384 304.06C238.384 301.564 237.844 300.316 236.764 300.316ZM241.657 311.854L248.119 297.274H250.855L244.375 311.854H241.657ZM255.083 308.02C255.551 308.02 255.917 307.858 256.181 307.534C256.445 307.21 256.577 306.778 256.577 306.238C256.577 305.746 256.445 305.356 256.181 305.068C255.929 304.768 255.569 304.618 255.101 304.618C254.453 304.618 253.883 304.876 253.391 305.392C253.523 307.144 254.087 308.02 255.083 308.02ZM258.341 298.3V300.73C257.873 300.478 257.327 300.352 256.703 300.352C255.851 300.352 255.149 300.616 254.597 301.144C254.057 301.66 253.691 302.356 253.499 303.232C254.147 302.68 254.921 302.404 255.821 302.404C256.853 302.404 257.681 302.746 258.305 303.43C258.941 304.114 259.259 305.032 259.259 306.184C259.259 307.372 258.881 308.368 258.125 309.172C257.381 309.964 256.361 310.36 255.065 310.36C253.613 310.36 252.515 309.844 251.771 308.812C251.039 307.768 250.673 306.37 250.673 304.618C250.673 302.614 251.219 301.012 252.311 299.812C253.415 298.612 254.807 298.012 256.487 298.012C257.123 298.012 257.741 298.108 258.341 298.3ZM262.825 305.266H265.417V299.938L262.825 305.266ZM269.467 305.266V307.498H268.027V310H265.417V307.498H260.251V305.266L263.851 298.192H268.027V305.266H269.467ZM270.628 306.364V304.204H275.434V306.364H270.628ZM276.432 302.836V300.154L279.744 298.228H282.012V310H279.402V301.054L276.432 302.836ZM283.72 304.06C283.72 302.188 284.08 300.706 284.8 299.614C285.52 298.522 286.588 297.976 288.004 297.976C289.42 297.976 290.488 298.522 291.208 299.614C291.94 300.706 292.306 302.188 292.306 304.06C292.306 305.908 291.94 307.384 291.208 308.488C290.488 309.592 289.42 310.144 288.004 310.144C286.588 310.144 285.52 309.598 284.8 308.506C284.08 307.402 283.72 305.92 283.72 304.06ZM288.004 300.316C286.936 300.316 286.402 301.564 286.402 304.06C286.402 306.556 286.936 307.804 288.004 307.804C289.084 307.804 289.624 306.556 289.624 304.06C289.624 301.564 289.084 300.316 288.004 300.316ZM293.564 304.06C293.564 302.188 293.924 300.706 294.644 299.614C295.364 298.522 296.432 297.976 297.848 297.976C299.264 297.976 300.332 298.522 301.052 299.614C301.784 300.706 302.15 302.188 302.15 304.06C302.15 305.908 301.784 307.384 301.052 308.488C300.332 309.592 299.264 310.144 297.848 310.144C296.432 310.144 295.364 309.598 294.644 308.506C293.924 307.402 293.564 305.92 293.564 304.06ZM297.848 300.316C296.78 300.316 296.246 301.564 296.246 304.06C296.246 306.556 296.78 307.804 297.848 307.804C298.928 307.804 299.468 306.556 299.468 304.06C299.468 301.564 298.928 300.316 297.848 300.316ZM303.587 306.364V304.204H308.393V306.364H303.587ZM312.325 305.266H314.917V299.938L312.325 305.266ZM318.967 305.266V307.498H317.527V310H314.917V307.498H309.751V305.266L313.351 298.192H317.527V305.266H318.967ZM319.678 298.21H327.598V300.442L323.026 310H320.254L324.844 300.442H319.678V298.21Z" fill="#EAEAEA"/>
<path d="M150 255H50V355H150V255Z" fill="#EEF310"/>
<path d="M183.722 181.23L184.226 178.8H181.778L181.256 181.23H183.722ZM188.816 178.8H186.458L185.936 181.23H188.204V183.228H185.522L184.928 186H182.714L183.29 183.228H180.842L180.248 186H178.034L178.61 183.228H176.81V181.23H179.042L179.546 178.8H177.422V176.712H179.996L180.59 173.886H182.822L182.228 176.712H184.676L185.27 173.886H187.502L186.908 176.712H188.816V178.8ZM190.253 180.06C190.253 178.188 190.613 176.706 191.333 175.614C192.053 174.522 193.121 173.976 194.537 173.976C195.953 173.976 197.021 174.522 197.741 175.614C198.473 176.706 198.839 178.188 198.839 180.06C198.839 181.908 198.473 183.384 197.741 184.488C197.021 185.592 195.953 186.144 194.537 186.144C193.121 186.144 192.053 185.598 191.333 184.506C190.613 183.402 190.253 181.92 190.253 180.06ZM194.537 176.316C193.469 176.316 192.935 177.564 192.935 180.06C192.935 182.556 193.469 183.804 194.537 183.804C195.617 183.804 196.157 182.556 196.157 180.06C196.157 177.564 195.617 176.316 194.537 176.316ZM200.097 180.06C200.097 178.188 200.457 176.706 201.177 175.614C201.897 174.522 202.965 173.976 204.381 173.976C205.797 173.976 206.865 174.522 207.585 175.614C208.317 176.706 208.683 178.188 208.683 180.06C208.683 181.908 208.317 183.384 207.585 184.488C206.865 185.592 205.797 186.144 204.381 186.144C202.965 186.144 201.897 185.598 201.177 184.506C200.457 183.402 200.097 181.92 200.097 180.06ZM204.381 176.316C203.313 176.316 202.779 177.564 202.779 180.06C202.779 182.556 203.313 183.804 204.381 183.804C205.461 183.804 206.001 182.556 206.001 180.06C206.001 177.564 205.461 176.316 204.381 176.316ZM210.319 177.18V174.732C211.207 174.288 212.101 174.066 213.001 174.066C214.273 174.066 215.281 174.372 216.025 174.984C216.769 175.584 217.141 176.37 217.141 177.342C217.141 178.674 216.535 179.592 215.323 180.096C216.691 180.42 217.375 181.308 217.375 182.76C217.375 183.768 216.991 184.578 216.223 185.19C215.467 185.79 214.405 186.09 213.037 186.09C211.753 186.09 210.691 185.886 209.851 185.478V182.958C210.811 183.486 211.801 183.75 212.821 183.75C213.409 183.75 213.865 183.624 214.189 183.372C214.525 183.12 214.693 182.802 214.693 182.418C214.693 181.542 213.883 181.104 212.263 181.104H211.633V178.944H212.263C212.899 178.944 213.421 178.836 213.829 178.62C214.237 178.404 214.441 178.08 214.441 177.648C214.441 176.82 213.901 176.406 212.821 176.406C211.993 176.406 211.159 176.664 210.319 177.18ZM218.642 180.06C218.642 178.188 219.002 176.706 219.722 175.614C220.442 174.522 221.51 173.976 222.926 173.976C224.342 173.976 225.41 174.522 226.13 175.614C226.862 176.706 227.228 178.188 227.228 180.06C227.228 181.908 226.862 183.384 226.13 184.488C225.41 185.592 224.342 186.144 222.926 186.144C221.51 186.144 220.442 185.598 219.722 184.506C219.002 183.402 218.642 181.92 218.642 180.06ZM222.926 176.316C221.858 176.316 221.324 177.564 221.324 180.06C221.324 182.556 221.858 183.804 222.926 183.804C224.006 183.804 224.546 182.556 224.546 180.06C224.546 177.564 224.006 176.316 222.926 176.316ZM228.035 178.836V176.154L231.347 174.228H233.615V186H231.005V177.054L228.035 178.836ZM243.261 176.082H238.653V179.214H242.667V181.428H238.653V186H235.863V173.868H243.261V176.082ZM243.763 187.854L250.225 173.274H252.961L246.481 187.854H243.763ZM252.328 178.836V176.154L255.64 174.228H257.908V186H255.298V177.054L252.328 178.836ZM262.676 176.424V178.422C262.94 178.386 263.204 178.368 263.468 178.368C264.752 178.368 265.736 178.698 266.42 179.358C267.104 180.018 267.446 180.918 267.446 182.058C267.446 183.282 267.038 184.266 266.222 185.01C265.418 185.742 264.272 186.108 262.784 186.108C261.476 186.108 260.42 185.898 259.616 185.478V182.994C260.432 183.498 261.344 183.75 262.352 183.75C263.96 183.75 264.764 183.174 264.764 182.022C264.764 181.59 264.596 181.248 264.26 180.996C263.936 180.744 263.444 180.618 262.784 180.618C261.86 180.618 260.972 180.816 260.12 181.212V174.192H266.726V176.424H262.676ZM272.558 179.772C273.278 179.772 273.86 179.502 274.304 178.962C274.16 177.258 273.584 176.406 272.576 176.406C272.108 176.406 271.73 176.556 271.442 176.856C271.166 177.156 271.028 177.576 271.028 178.116C271.028 178.596 271.166 178.992 271.442 179.304C271.718 179.616 272.09 179.772 272.558 179.772ZM269.192 185.802V183.318C269.816 183.618 270.434 183.768 271.046 183.768C271.982 183.768 272.708 183.558 273.224 183.138C273.74 182.706 274.076 182.034 274.232 181.122C273.716 181.638 272.936 181.896 271.892 181.896C270.836 181.896 269.978 181.56 269.318 180.888C268.67 180.204 268.346 179.298 268.346 178.17C268.346 176.994 268.712 176.016 269.444 175.236C270.188 174.456 271.19 174.066 272.45 174.066C273.854 174.066 274.952 174.576 275.744 175.596C276.548 176.604 276.95 177.984 276.95 179.736C276.95 181.884 276.44 183.492 275.42 184.56C274.4 185.616 273.038 186.144 271.334 186.144C270.518 186.144 269.804 186.03 269.192 185.802ZM278.394 182.364V180.204H283.2V182.364H278.394ZM284.198 178.836V176.154L287.51 174.228H289.778V186H287.168V177.054L284.198 178.836ZM291.485 180.06C291.485 178.188 291.845 176.706 292.565 175.614C293.285 174.522 294.353 173.976 295.769 173.976C297.185 173.976 298.253 174.522 298.973 175.614C299.705 176.706 300.071 178.188 300.071 180.06C300.071 181.908 299.705 183.384 298.973 184.488C298.253 185.592 297.185 186.144 295.769 186.144C294.353 186.144 293.285 185.598 292.565 184.506C291.845 183.402 291.485 181.92 291.485 180.06ZM295.769 176.316C294.701 176.316 294.167 177.564 294.167 180.06C294.167 182.556 294.701 183.804 295.769 183.804C296.849 183.804 297.389 182.556 297.389 180.06C297.389 177.564 296.849 176.316 295.769 176.316ZM301.329 180.06C301.329 178.188 301.689 176.706 302.409 175.614C303.129 174.522 304.197 173.976 305.613 173.976C307.029 173.976 308.097 174.522 308.817 175.614C309.549 176.706 309.915 178.188 309.915 180.06C309.915 181.908 309.549 183.384 308.817 184.488C308.097 185.592 307.029 186.144 305.613 186.144C304.197 186.144 303.129 185.598 302.409 184.506C301.689 183.402 301.329 181.92 301.329 180.06ZM305.613 176.316C304.545 176.316 304.011 177.564 304.011 180.06C304.011 182.556 304.545 183.804 305.613 183.804C306.693 183.804 307.233 182.556 307.233 180.06C307.233 177.564 306.693 176.316 305.613 176.316ZM311.353 182.364V180.204H316.159V182.364H311.353ZM321.549 179.772C322.269 179.772 322.851 179.502 323.295 178.962C323.151 177.258 322.575 176.406 321.567 176.406C321.099 176.406 320.721 176.556 320.433 176.856C320.157 177.156 320.019 177.576 320.019 178.116C320.019 178.596 320.157 178.992 320.433 179.304C320.709 179.616 321.081 179.772 321.549 179.772ZM318.183 185.802V183.318C318.807 183.618 319.425 183.768 320.037 183.768C320.973 183.768 321.699 183.558 322.215 183.138C322.731 182.706 323.067 182.034 323.223 181.122C322.707 181.638 321.927 181.896 320.883 181.896C319.827 181.896 318.969 181.56 318.309 180.888C317.661 180.204 317.337 179.298 317.337 178.17C317.337 176.994 317.703 176.016 318.435 175.236C319.179 174.456 320.181 174.066 321.441 174.066C322.845 174.066 323.943 174.576 324.735 175.596C325.539 176.604 325.941 177.984 325.941 179.736C325.941 181.884 325.431 183.492 324.411 184.56C323.391 185.616 322.029 186.144 320.325 186.144C319.509 186.144 318.795 186.03 318.183 185.802Z" fill="#EAEAEA"/>
<path d="M51.5 230.5V131.5H150.5V230.5H51.5Z" fill="#00301F" stroke="#EAEAEA"/>
<path d="M61.65 78.5V75.5H70.75V92H69.25L67.95 88.8C67.25 90 66.3333 90.9667 65.2 91.7C64.0667 92.4 62.8333 92.75 61.5 92.75C56.6667 92.75 54.25 90.4167 54.25 85.75V65.75C54.25 63.5167 54.9333 61.8 56.3 60.6C57.6667 59.3667 59.7167 58.75 62.45 58.75C65.1833 58.75 67.25 59.3667 68.65 60.6C70.05 61.8 70.75 63.5167 70.75 65.75V68.5H67.25V65.75C67.25 63.0833 65.6667 61.75 62.5 61.75C59.3333 61.75 57.75 63.0833 57.75 65.75V85.75C57.75 87.0167 58.0167 88 58.55 88.7C59.0833 89.4 60.05 89.75 61.45 89.75C62.8833 89.75 64.2 89.1833 65.4 88.05C66.6333 86.9167 67.25 85.8167 67.25 84.75V78.5H61.65ZM86.65 78.5V75.5H95.75V92H94.25L92.95 88.8C92.25 90 91.3333 90.9667 90.2 91.7C89.0667 92.4 87.8333 92.75 86.5 92.75C81.6667 92.75 79.25 90.4167 79.25 85.75V65.75C79.25 63.5167 79.9333 61.8 81.3 60.6C82.6667 59.3667 84.7167 58.75 87.45 58.75C90.1833 58.75 92.25 59.3667 93.65 60.6C95.05 61.8 95.75 63.5167 95.75 65.75V68.5H92.25V65.75C92.25 63.0833 90.6667 61.75 87.5 61.75C84.3333 61.75 82.75 63.0833 82.75 65.75V85.75C82.75 87.0167 83.0167 88 83.55 88.7C84.0833 89.4 85.05 89.75 86.45 89.75C87.8833 89.75 89.2 89.1833 90.4 88.05C91.6333 86.9167 92.25 85.8167 92.25 84.75V78.5H86.65ZM116.523 59.5H124.073C126.673 59.5 128.64 60.1167 129.973 61.35C131.34 62.5833 132.023 64.3 132.023 66.5V69.5C132.023 72.3333 130.84 74.15 128.473 74.95C131.173 75.6833 132.523 77.5333 132.523 80.5V85C132.523 87.2333 131.857 88.9667 130.523 90.2C129.19 91.4 127.207 92 124.573 92H116.523V59.5ZM129.023 85V80.5C129.023 79.4333 128.623 78.4667 127.823 77.6C127.023 76.7 125.94 76.25 124.573 76.25H120.023V89H124.573C125.973 89 127.057 88.6167 127.823 87.85C128.623 87.05 129.023 86.1 129.023 85ZM128.523 69.5V66.5C128.523 65.4333 128.123 64.5 127.323 63.7C126.557 62.9 125.473 62.5 124.073 62.5H120.023V73.75H124.073C125.473 73.75 126.557 73.3167 127.323 72.45C128.123 71.5833 128.523 70.6 128.523 69.5ZM145.268 92H141.768V59.5H143.268L144.718 63.2C145.784 60.2333 147.484 58.75 149.818 58.75C153.784 58.75 155.768 60.9167 155.768 65.25V68.5H152.418V65.05C152.418 62.85 151.501 61.75 149.668 61.75C148.568 61.75 147.551 62.3833 146.618 63.65C145.718 64.9167 145.268 66.75 145.268 69.15V92ZM177.287 92H175.787L174.487 88.8C173.787 90 172.87 90.9667 171.737 91.7C170.604 92.4 169.354 92.75 167.987 92.75C163.187 92.75 160.787 90.4167 160.787 85.75V80.75C160.787 76.0833 163.187 73.75 167.987 73.75H173.787V65.55C173.787 64.35 173.404 63.4167 172.637 62.75C171.87 62.0833 170.737 61.75 169.237 61.75C166.27 61.75 164.787 63.0167 164.787 65.55V68.5H161.287V65.75C161.287 63.5167 161.937 61.8 163.237 60.6C164.57 59.3667 166.57 58.75 169.237 58.75C171.904 58.75 173.904 59.3667 175.237 60.6C176.604 61.8 177.287 63.5167 177.287 65.75V92ZM173.787 76.75H167.987C166.587 76.75 165.62 77.1 165.087 77.8C164.554 78.5 164.287 79.4833 164.287 80.75V85.75C164.287 87.0167 164.554 88 165.087 88.7C165.62 89.4 166.587 89.75 167.987 89.75C169.387 89.75 170.687 89.2167 171.887 88.15C173.087 87.05 173.72 85.9667 173.787 84.9V76.75ZM190.287 92H186.787V59.5H188.287L189.537 62.75C191.137 60.0833 193.354 58.75 196.187 58.75C201.087 58.75 203.537 61.0833 203.537 65.75V92H200.037V65.75C200.037 64.4833 199.754 63.5 199.187 62.8C198.654 62.1 197.654 61.75 196.187 61.75C194.72 61.75 193.37 62.3167 192.137 63.45C190.904 64.5833 190.287 65.6833 190.287 66.75V92ZM221.107 92H213.057V59.5H221.107C223.707 59.5 225.673 60.1167 227.007 61.35C228.373 62.5833 229.057 64.3 229.057 66.5V85C229.057 87.2333 228.39 88.9667 227.057 90.2C225.723 91.4 223.74 92 221.107 92ZM225.557 85V66.5C225.557 65.2333 225.173 64.25 224.407 63.55C223.64 62.85 222.54 62.5 221.107 62.5H216.557V89H221.107C224.073 89 225.557 87.6667 225.557 85ZM252.824 92H249.324V59.5H256.874C259.474 59.5 261.441 60.1167 262.774 61.35C264.141 62.5833 264.824 64.3 264.824 66.5V75C264.824 77.2333 264.158 78.9667 262.824 80.2C261.491 81.4 259.508 82 256.874 82H252.824V92ZM261.324 75V66.5C261.324 65.2333 260.941 64.25 260.174 63.55C259.408 62.85 258.308 62.5 256.874 62.5H252.824V79H256.874C259.841 79 261.324 77.6667 261.324 75ZM276.322 92H272.822V59.5H274.322L275.772 63.2C276.839 60.2333 278.539 58.75 280.872 58.75C284.839 58.75 286.822 60.9167 286.822 65.25V68.5H283.472V65.05C283.472 62.85 282.556 61.75 280.722 61.75C279.622 61.75 278.606 62.3833 277.672 63.65C276.772 64.9167 276.322 66.75 276.322 69.15V92ZM296.342 92H292.842V59.5H296.342V92ZM309.818 92H306.318V59.5H307.818L309.068 62.7C309.768 61.5 310.685 60.55 311.818 59.85C312.952 59.1167 314.185 58.75 315.518 58.75C318.885 58.75 321.035 59.9667 321.968 62.4C323.568 59.9667 325.668 58.75 328.268 58.75C332.968 58.75 335.318 61.0833 335.318 65.75V92H331.818V65.75C331.818 63.0833 330.618 61.75 328.218 61.75C326.818 61.75 325.518 62.3167 324.318 63.45C323.152 64.5833 322.568 65.6833 322.568 66.75V92H319.068V65.75C319.068 63.0833 317.868 61.75 315.468 61.75C314.068 61.75 312.768 62.3 311.568 63.4C310.402 64.4667 309.818 65.5333 309.818 66.6V92ZM360.295 92H358.795L357.495 88.8C356.795 90 355.878 90.9667 354.745 91.7C353.612 92.4 352.362 92.75 350.995 92.75C346.195 92.75 343.795 90.4167 343.795 85.75V80.75C343.795 76.0833 346.195 73.75 350.995 73.75H356.795V65.55C356.795 64.35 356.412 63.4167 355.645 62.75C354.878 62.0833 353.745 61.75 352.245 61.75C349.278 61.75 347.795 63.0167 347.795 65.55V68.5H344.295V65.75C344.295 63.5167 344.945 61.8 346.245 60.6C347.578 59.3667 349.578 58.75 352.245 58.75C354.912 58.75 356.912 59.3667 358.245 60.6C359.612 61.8 360.295 63.5167 360.295 65.75V92ZM356.795 76.75H350.995C349.595 76.75 348.628 77.1 348.095 77.8C347.562 78.5 347.295 79.4833 347.295 80.75V85.75C347.295 87.0167 347.562 88 348.095 88.7C348.628 89.4 349.595 89.75 350.995 89.75C352.395 89.75 353.695 89.2167 354.895 88.15C356.095 87.05 356.728 85.9667 356.795 84.9V76.75ZM373.295 92H369.795V59.5H371.295L372.745 63.2C373.812 60.2333 375.512 58.75 377.845 58.75C381.812 58.75 383.795 60.9167 383.795 65.25V68.5H380.445V65.05C380.445 62.85 379.528 61.75 377.695 61.75C376.595 61.75 375.578 62.3833 374.645 63.65C373.745 64.9167 373.295 66.75 373.295 69.15V92ZM393.314 92H389.814V59.5H393.314V92ZM415.541 85.75V83H419.041V85.75C419.041 87.9833 418.358 89.7167 416.991 90.95C415.624 92.15 413.574 92.75 410.841 92.75C408.108 92.75 406.041 92.15 404.641 90.95C403.241 89.7167 402.541 87.9833 402.541 85.75V65.75C402.541 63.5167 403.224 61.8 404.591 60.6C405.958 59.3667 408.008 58.75 410.741 58.75C413.474 58.75 415.541 59.3667 416.941 60.6C418.341 61.8 419.041 63.5167 419.041 65.75V76.75H406.041V85.75C406.041 88.4167 407.624 89.75 410.791 89.75C413.958 89.75 415.541 88.4167 415.541 85.75ZM406.041 65.75V73.75H415.541V65.75C415.541 63.0833 413.958 61.75 410.791 61.75C407.624 61.75 406.041 63.0833 406.041 65.75ZM444.191 85.75C444.191 90.4167 441.374 92.75 435.741 92.75C430.108 92.75 427.291 90.4167 427.291 85.75V81.5H430.791V85.95C430.791 87.15 431.208 88.0833 432.041 88.75C432.874 89.4167 434.108 89.75 435.741 89.75C437.374 89.75 438.608 89.4167 439.441 88.75C440.274 88.0833 440.691 87.1833 440.691 86.05C440.691 84.8833 440.558 83.9667 440.291 83.3C440.058 82.6 439.558 81.8667 438.791 81.1L429.991 72.5C428.958 71.4667 428.241 70.4667 427.841 69.5C427.474 68.5 427.291 67.25 427.291 65.75C427.291 63.5167 427.974 61.8 429.341 60.6C430.741 59.3667 432.841 58.75 435.641 58.75C441.008 58.75 443.691 61.0833 443.691 65.75V70H440.191V65.55C440.191 64.35 439.791 63.4167 438.991 62.75C438.224 62.0833 437.058 61.75 435.491 61.75C433.924 61.75 432.741 62.0833 431.941 62.75C431.174 63.4167 430.791 64.3333 430.791 65.5C430.791 66.6667 430.908 67.5833 431.141 68.25C431.374 68.9167 431.891 69.6167 432.691 70.35L441.641 78.95C442.608 80.0167 443.274 81.05 443.641 82.05C444.008 83.0167 444.191 84.25 444.191 85.75Z" fill="#EAEAEA"/>
<defs>
<linearGradient id="paint0_linear_2_132" x1="587" y1="509.7" x2="510.6" y2="598" gradientUnits="userSpaceOnUse">
<stop stop-color="#EEF310"/>
<stop offset="0.488" stop-color="#00AD4D"/>
<stop offset="0.803" stop-color="#006340"/>
<stop offset="1" stop-color="#00301F"/>
</linearGradient>
</defs>
</svg>
