<svg width="500" height="500" viewBox="0 0 500 500" fill="none" xmlns="http://www.w3.org/2000/svg">
<g clip-path="url(#clip0_1380_114529)">
<path d="M500 0H0V500H500V0Z" fill="#76777C"/>
<path d="M491.439 8.56054H8.56054V491.439H491.439V8.56054Z" fill="white"/>
<path d="M194.689 440.535L194.23 442.05H149.752L149.339 440.466C152.644 438.699 153.814 437.85 155.352 436.175C158.129 433.237 159.506 428.624 159.506 422.06V378.729H116.749V422.06C116.749 424.929 117.3 429.06 117.966 431.355C118.953 435.073 121.248 437.437 126.756 440.512L126.343 442.05H81.3137L80.9465 440.466C84.3202 438.768 85.5366 437.919 87.0972 436.152C89.9201 433.26 91.2742 428.624 91.2513 422.06L91.2054 347.15C91.2054 344.212 90.7005 339.989 90.0119 337.763C88.8415 333.93 86.3628 331.451 80.9006 328.583L81.2678 326.999H126.32L126.733 328.537C123.405 330.579 122.097 331.543 120.743 333.264C118.126 336.156 116.703 341.159 116.703 347.287V368.103H159.483V347.264C159.483 344.166 158.932 339.966 158.267 337.9C156.913 333.655 154.067 330.878 148.811 328.583L149.155 326.999H194.873L195.263 328.583C191.981 330.304 190.604 331.153 189.089 332.851C186.312 335.881 185.096 340.333 185.096 347.31V422.037C185.096 424.929 185.555 428.853 186.335 431.332C188.217 437.391 194.666 440.512 194.666 440.512L194.689 440.535ZM234.899 430.506C234.164 426.834 233.728 422.198 233.797 418.434L234.164 361.103L202.102 366.382L201.758 367.897C206.187 371.087 207.587 373.152 208.597 377.88C209.24 381.254 209.584 384.765 209.538 389.241L209.286 418.434C209.194 426.03 208.138 432.089 206.233 435.601C205.109 437.758 203.915 438.699 200.22 440.397L200.565 441.981H241.577L242.036 440.443C237.446 437.62 235.862 435.417 234.876 430.506H234.899ZM282.773 431.952C282.154 429.221 281.741 425.365 281.741 421.578V325.255L248.531 330.946L248.325 332.507C253.259 334.825 255.049 336.73 255.967 341.022C256.724 344.097 257.229 348.205 257.229 351.533V421.601C257.229 428.119 256.197 433.352 254.338 436.312C253.007 438.102 251.675 439.066 248.393 440.466L248.692 442.05H289.544L289.934 440.512C285.321 437.988 283.783 436.175 282.727 431.952H282.773ZM331.199 431.952C330.556 429.221 330.166 425.365 330.166 421.578L330.12 325.255L296.957 330.946L296.75 332.507C301.73 334.825 303.452 336.73 304.416 341.022C305.173 344.097 305.655 348.205 305.655 351.533V421.601C305.655 428.119 304.645 433.352 302.786 436.312C301.455 438.102 300.101 439.066 296.796 440.466L297.14 442.05H337.969L338.359 440.512C333.792 437.988 332.209 436.175 331.199 431.952ZM387.129 388.919C379.165 386.372 368.08 382.011 368.08 376.595C368.08 368.723 379.051 367.713 388.369 369.09C398.214 370.536 407.716 377.857 412.559 383.365L413.958 382.838L414.119 364.248C414.119 364.248 400.716 360.254 385.638 359.979C354.654 359.428 347.379 373.451 347.035 381.851C346.346 400.372 365.418 406.959 381.965 412.719C392.178 416.277 401.611 418.893 401.611 424.286C401.611 430.919 395.185 435.211 380.933 435.211C361.195 435.211 349.858 421.303 346.622 417.286L345.199 417.975L349.238 440.879L350.294 441.545C358.097 438.814 365.579 443.679 381.736 443.886C413.408 444.276 420.821 427.614 421.808 419.857C423.919 403.034 406.844 395.208 387.106 388.942L387.129 388.919ZM219.82 326.701C212.063 326.701 207.564 331.612 207.564 337.763C207.564 343.913 212.063 348.802 219.82 348.802C227.577 348.802 232.03 343.868 232.03 337.763C232.03 331.658 227.531 326.701 219.82 326.701ZM356.513 324.979C350.959 324.842 344.418 326.655 344.097 332.461C343.891 337.166 347.563 338.566 348.435 343.294C349.972 351.831 342.697 357.776 342.582 357.867L343.822 359.658C349.789 356.49 360.163 350.34 365.648 339.714C369.251 332.76 366.267 325.255 356.513 324.979Z" fill="#231F20"/>
<path d="M79.9596 313.848L80.8547 314.514C89.8742 306.16 99.0774 297.967 108.372 289.773H239.443V190.581C246.557 186.198 253.534 182.204 260.764 178.096V289.75H391.949V123.52C418.755 116.52 446.525 111.264 474.846 109.428V108.281C249.748 86.1104 83.4022 309.258 79.9596 313.825V313.848Z" fill="#0055A3"/>
<path d="M51.3403 331.543L52.1665 332.094C84.871 295.006 206.669 107.684 427.109 95.1528V93.9824C231.915 72.5007 102.245 254.407 51.3403 331.543Z" fill="#EC1B34"/>
<path d="M391.742 80.5104V58.0189H260.764V110.667C299.665 92.1693 343.294 80.2809 391.742 80.5104Z" fill="#EC1B34"/>
<path d="M108.372 58.0419H239.443V121.707C186.014 151.932 142.408 194.712 108.372 236.574V58.0419Z" fill="#EC1B34"/>
</g>
<defs>
<clipPath id="clip0_1380_114529">
<rect width="500" height="500" fill="white"/>
</clipPath>
</defs>
</svg>
